<?xml version="1.0" encoding="UTF-8"?>
<svg id="Layer_1" data-name="Layer 1" xmlns="http://www.w3.org/2000/svg" width="28.4774in" height="18.6277in"
  viewBox="0 0 2050.3735 1341.1943">
  <g>
    <path
      d="M234.0823,775.5819l-6.773-1.4704-18.7387-36.0303-5.8614,5.0481c2.3266,3.5714,3.1932,7.7353,5.0722,11.5102,3.886,7.807,10.3539,16.2712,16.9948,21.1815l.3062,5.7609-6.7765-1.4669c-7.8166-14.6043-21.3425-25.8848-20.2897-44.1437l6.0543-2.4108c1.7022-1.751-7.8831-18.1024-8.7063-22.0037-1.8446-8.742-1.0885-21.673,7.6441-26.2932,12.5287-6.6286,19.6243,4.4774,25.358,14.2912,14.6161,25.0169,15.9934,65.9364,30.574,84.926,2.7079,3.5267,13.7635,9.3188,8.1498,12.8587-3.7383,2.3573-6.7833-2.02-9.0075-4.5009-18.8118-20.9836-19.1987-68.0924-37.7178-95.7823-10.8863-16.2773-21.95-4.2685-18.9568,12.9558,1.1577,6.6622,11.7199,27.0647,15.5392,33.9618,4.3256,7.8116,13.2413,18.063,16.3546,25.6449.86,2.0943,1.0234,3.7437.7806,5.9633Z"
      style="fill: #50d1ff;" />
    <path
      d="M310.5889,691.5818c-.5301-3.0737.3429-3.9814,2.1955-6.0479,1.9115-2.1322,8.7524-7.5981,11.3987-9.6013,17.227-13.0402,66.7728-38.7353,87.6373-39.9153,6.9102-.3908,9.8388,4.2336,2.9786,6.0312-28.7066,7.522-59.025,17.25-83.1154,35.3846-3.2549,2.4502-17.3202,17.8025-21.0946,14.1488Z"
      style="fill: #50d1ff;" />
    <path
      d="M558.0824,562.5818c-1.8178,1.877-13.1375-7.4785-16.1148-8.6286-8.7713-3.3883-20.2135-3.1752-27.3112,3.4526-5.8723,5.4835-7.2023,11.4567-6.0306,19.3894,1.0948,7.412,14.0189,16.5963,20.3963,20.1035,3.9571,2.1762,9.2775,1.1725,8.0604,7.683-6.1931.6505-11.5125-3.5081-16.3826-6.8607-14.0787-9.692-24.0802-22.0379-13.9167-39.1884,9.7968-16.5316,28.2625-14.5108,43.3645-6.7594,4.5696,2.3455,9.3382,4.892,7.9348,10.8086Z"
      style="fill: #50d1ff;" />
    <path
      d="M390.4953,684.4964c5.1584-4.8976,15.529-7.5071,22.0761-4.1417,1.6954,1.0924,2.7377,2.432,3.0415,4.4836,2.0188,13.6366-20.3784,24.1621-19.6299,37.4961.1492,2.6586,3.5501,8.4883-.6572,9.7473-5.4921,1.6435-5.7368-10.3614-4.9556-13.9661,2.2016-10.1591,19.8955-23.3413,19.314-30.275-.6908-8.2376-13.9051-1.3041-16.9293,4.1639-1.4827,2.6808-1.1149,8.5863-6.4126,7.0743-5.2001-1.4842,2.0875-12.6213,4.1529-14.5823Z"
      style="fill: #50d1ff;" />
    <path
      d="M319.161,798.4988l-10.0615-8.671c2.7055,5.4654,6.3342,12.0232,10.4735,16.5199,3.8095,4.1384,9.0485,4.2378,7.5093,11.234-2.5275.3553-4.4366-.4182-6.541-1.7026-4.9483-3.0201-21.7549-29.6421-17.3413-34.174l3.888-1.3365c5.9966-.4843,12.7422,13.0792,16.9596,17.0044,4.9269,2.5643,11.087-2.2979,15.8072,5.1947,1.5697,2.4917.0991,2.9428-1.5384,4.5239l-4.7637-2.8467c-6.7358,2.093-11.4068.986-14.3918-5.7462Z"
      style="fill: #50d1ff;" />
    <path
      d="M454.1493,741.4003c7.1502-1.2709,14.044,1.2904,14.0508,9.4343.0051,6.1068-7.5368,13.5196-9.1135,7.4892-.8784-3.3599,2.9855-4.978,3.0593-7.4595.2566-8.6214-19.7078-.5307-23.2461,5.2851-2.4814,4.0786-3.3689,10.1511-4.8783,14.6217-.6159,1.8243-1.5054,5.6606-4.1761,4.8107-2.7179-1.9608-2.5012-3.4358-1.9777-6.4428,2.4325-13.9728,12.0699-25.2127,26.2816-27.7387Z"
      style="fill: #50d1ff;" />
    <path
      d="M522.0857,691.5852l-6.0063-2.2699c3.7239-17.5862,30.4521-17.356,15.0253,3.0389-1.3298,1.758-9.67,10.6612-12.0157,8.2277-1.687-6.2357,1.8268-5.2146,2.96-7.0124.3782-.6-.2028-1.6896.0367-1.9843.1262-.1553,2.3437.06,3.7252-1.4614l3.0315-7.5252c-3.8033,2.2409-6.5426,4.1253-6.7567,8.9867Z"
      style="fill: #50d1ff;" />
    <path
      d="M301.5822,720.0883c-4.2648,15.7656,7.8761,22.8587,22.5001,21.0001,1.5622,11.5497-19.3653,3.8316-23.5866-.4135-1.1442-1.1507-5.1919-8.3192-5.7254-10.0188-1.9177-6.1084-.3976-12.5208,6.8119-10.5679Z"
      style="fill: #50d1ff;" />
    <path
      d="M366.0759,814.5855c-11.0346-.4363-3.7071-5.7003-2.9849-9.7354.5865-3.2769.6029-9.2049-2.1664-11.3539l-6.8136-3.6868,2.3137-5.1844c15.1815,2.0646,14.3835,18.5589,9.6512,29.9605Z"
      style="fill: #50d1ff;" />
    <path
      d="M403.5537,741.0693c-13.7151.2236,2.4315-16.0716,6.0128-21.7533.9041-1.4343.7868-4.2031,3.7593-3.7274,8.421,9.8279-9.7077,14.943-9.7721,25.4807Z"
      style="fill: #50d1ff;" />
    <path
      d="M391.5426,817.5652l-5.9536.0194c-1.2221-7.4053,2.7369-13.1461,10.0277-14.712,4.0855-.8775,13.9413-1.1482,9.5067,5.0004l-12.1348,2.8612-1.4461,6.831Z"
      style="fill: #50d1ff;" />
    <path
      d="M541.5008,568.6705l-8.0591,1.3574c-6.2415-6.1382.5485-8.6272,7.1096-7.1501,4.8235,1.0859,13.1246,11.4283,4.7934,13.2047l-3.8439-7.412Z"
      style="fill: #50d1ff;" />
    <path d="M224.9271,727.7456l4.6552,14.8363c-3.6095,3.7224-12.1667-11.5332-10.4933-14.9935l5.8381.1572Z"
      style="fill: #50d1ff;" />
    <path
      d="M408.0889,786.0834l.1793-6.5666c1.4119-4.7562,9.1673-2.7003,7.235,4.235-.7844,2.8154-5.1029,2.4847-7.4143,2.3316Z"
      style="fill: #50d1ff;" />
    <path d="M493.5895,702.0883c1.4207,10.1645-8.833,10.4386-7.5077,0h7.5077Z" style="fill: #50d1ff;" />
    <path d="M329.3765,729.1266c7.387-.7884,8.8499,3.5011,2.8146,7.3946-4.0507-.9999-7.2341-4.6966-2.8146-7.3946Z"
      style="fill: #50d1ff;" />
  </g>
  <g>
    <path
      d="M193.513,931.4204c-8.3224-8.4108-18.5535-14.6258-26.9053-22.6926-48.2931-48.4381-101.7762-99.625-122.0823-166.8464-6.6279-21.2717-5.3475-37.7768,19.257-43.9082,23.4296,3.5844,40.934,16.8444,59.5343,29.1719,35.1142,23.0753,71.477,45.0298,108.0468,65.8253,42.3251,24.1087,78.2691,40.4572,119.3897,37.5361,58.3789-4.9056,108.581-41.0844,152.9717-76.8555,40.7113-32.0108,73.548-72.253,110.9718-107.8851,14.2671-14.619,23.0995-25.3564,37.3896-43.9485,94.6423-116.6697,87.218-189.0985-8.929-292.4775-12.868-13.7305-28.8262-25.9836-39.7163-41.4982-8.6365-13.0123-4.3184-31.412,5.9235-42.3858,8.0574-7.9668,23.1066-15.2086,34.4277-18.1842,35.4683-7.7878,89.8203,10.7885,132.6163,30.5362,40.2582,19.0952,74.4392,38.1317,106.4489,67.5905.4364.4536.7697.4817.8285-.2812,3.327-27.5945,7.3917-56.815,17.0848-83.0026,16.7922-44.4848,55.9521-78.1109,103.5125-81.0764,51.9185-3.2715,102.2464,10.1423,144.2022,40.3362,2.6159.7042,3.7291-3.3906,5.8779-3.9586,12.5385-3.805,40.5004,11.4414,54.5587,12.9947,71.947-118.2268,221.5044-188.982,355.2278-131.7406,3.346,1.1094,5.5931,2.006,7.8436,1.0617,20.314-12.1369,37.5267-29.4972,59.2748-39.037,21.1391-14.3069,38.9783-29.7659,61.5145-14.1782,26.0905,17.548,47.5385,46.5137,67.8647,70.3002,37.1298,43.9281,49.5422,100.0431,55.064,156.5332,16.4051,9.274,37.3002,12.7555,54.8638,20.9756,17.8828,7.6877,39.2925,17.7541,56.1557,29.5925,11.2457,7.8259,23.2149,21.2755,35.8367,28.6104,20.4145,10.2642,46.101,11.3298,66.1003,24.4596,8.2104,5.1514,15.5632,12.9101,19.584,21.9316,6.006,13.63-1.5755,23.758-12.2636,35.2265,6.8898,29.8425-22.4249,65.0275-40.9332,88.448-126.0283,136.9273-270.1235,256.2203-428.7138,354.6423-8.7716,4.6433-16.8604,10.5979-26.3654,13.2761-.4931.1495-.7742.4801-.8408.9904-.4133,4.3288.3577,8.8747.0108,13.1898-5.7675,100.99-52.011,180.6445-150.8672,211.4896-10.828,2.1354-25.2988,6.5637-35.5144,2.0389-7.1619-3.5976-13.9603-10.3971-14.7564-17.8193-2.6083-38.6416,44.4719-41.1291,28.5392-132.836.1146-1.0733-1.4715-2.4256-2.0173-3.152-.3593-.4183-.3051-.2679-.6273-.1979-.1142.0453-.2719.0792-.3882.1226-3.3931,1.0757-17.7987,5.6141-19.0203,6.0137-.2072.1884-.2657.3755-.4402.7538-38.6588,78.2694-134.2,183.2172-221.6332,202.6612-50.6919,9.1243-103.0054,8.1345-153.415-1.1647-5.1376-.9685-10.3554-3.6293-14.8955-4.6108-.8906-2.9291-2.6842-7.3822-3.0469-10.0099.5077-2.73,2.6401-4.0277,5.0538-5.2462,67.4138-13.0481,115.5165-62.228,140.3375-124.0732.4327-1.6065.5375-2.6214.1155-3.0634-14.4888,3.003-62.5342,11.5891-89.1152,16.806-70.7295,11.2001-139.9273,16.3862-208.3269,37.3971-29.4574,7.8851-113.3362,40.6231-135.8926,22.8768.2915-1.9987,1.3847-3.94,3.3514-4.4931,41.9009-5.4516,80.6666-15.9679,121.4732-27.2403,40.9501-9.8856,54.678-22.2324,74.2461-58.3435,45.8596-90.6946,140.9342-142.2051,246.0435-133.6631,19.441,1.9501,51.6216,8.5602,59.6728,27.2972.5966,2.5453,1.2374,6.4258-.878,8.8433-3.4398,2.2383-5.9645,4.8755-8.1934,7.8564-31.9631,45.2802-41.0559,103.2117-70.3632,148.5822-25.8046,42.3323-64.8099,77.3737-114.0359,88.8269-.5037.1003-.9546.5042-.7046,1.0723.2075.5308.5856.9413,1.0492,1.2175,21.5073,6.5361,46.9096,5.5431,69.6826,5.5605,16.1742-.3497,34.8956-1.4269,51.0775-3.012,1.1593.0794,3.1646-.4457,3.7823-1.3215.1116-.2335.3444-.3005.9256-.3093,26.7265-1.6778,46.2851-9.628,68.4684-21.7459,89.927-54.4324,179.6084-159.5229,191.6264-269.0783,4.0201-34.6601,8.0655-82.9456,33.7585-106.5733,6.6422-5.2415,15.7181-6.0219,22.3601-11.6545,11.7881-9.6896,20.1138-23.7542,30.0794-34.7969,13.2516-14.6452,29.1925-28.9196,47.4428-43.1691,122.4704-91.6969,254.2514-147.6432,392.2704-189.9238,17.9845-6.4518,35.6777-14.4399,53.5176-21.397,24.2439-9.2979,53.1819-17.796,75.3848-31.7203,13.3938-9.0716,24.964-17.9588,20.7192-30.7304-3.4035-7.5461-11.1406-12.6528-18.14-16.9295-19.467-12.6169-40.8334-11.5232-60.7761-22.3839-18.1001-10.1867-30.6975-26.2372-49.0849-36.9292-25.1916-14.4319-62.3516-31.0127-87.4495-37.0521-7.1558-1.7428-14.4954,2.711-21.0744,4.6822-45.4247,11.3766-90.1554,18.2159-135.5099,30.0908-77.9667,20.5905-149.0134,57.1093-212.2418,106.5144-27.0936,20.1269-52.0295,43.31-76.0348,67.5452,7.9309,1.3462,20.6368,3.5454,29.0432,4.9077,2.01.4255,3.6704.3551,5.1529,1.1465,16.1907,6.4887,28.7005,20.7837,30.3697,38.3441,6.2135,38.2265-25.7208,72.2574-52.5531,95.4139,3.7567,7.5031,16.0272,22.1673,19.1003,26.3641,4.0368,5.2504,11.8499,9.0815,10.3076,16.7123-1.5753,4.751-14.5232,9.8826-19.3176,12.6194-24.9572,10.9193-52.3346,19.3602-75.6628,33.3104-9.5702.6263-12.2128-13.5376-19.2504-17.5886-.9376-.4689-.9438-1.7183-1.3269-2.5677-2.0021-4.094-5.731-7.2925-6.8818-11.7848-.0738-.5029-.3271-1.0256-.9162-.8787-11.6695,2.3646-23.2167,5.9535-34.6707,9.3572-49.3029,16.4999-101.2537,13.0459-151.8337,22.7199-21.9768,3.718-42.726,7.9566-65.4009,8.155-.9521.1927-1.3191-1.0261-2.1648-1.3093-5.6424-.4867-11.426.0492-17.1068-.1132-1.8215-.0332.0354-2.8126-3.5338-3.5642-14.27-3.3371-15.6984-18.5608-9.9738-29.9604,33.2935-59.0723,174.2018-120.1611,233.9417-154.8157-34.5644-45.5122-58.6506-95.2559-65.358-153.2584-.3863-11.3941-3.5297-22.6854-3.079-34.1281-.0265-.6432.0636-.9427-.4862-.9995-.8617-.1628-2.6533-.0217-4.9536.3049-7.4733,1.141-17.8817,3.4598-25.1534,5.2674-19.924,4.9202-39.8865,11.9844-59.4477,18.2566-7.1215,2.567-16.8051,4.6032-21.0879,10.8407-2.9191,7.4747-5.3251,17.8806-7.1023,25.7493-7.7794,34.1961-1.6288,71.8873-12.6801,105.4505-4.3567,8.8644-11.0408,13.6316-13.8487,21.5676-1.4532,3.9729.2724,12.8516-5.7585,13.8102-7.7001.8649-8.8149-11.0286-10.9416-16.9458-1.5443-3.8962-4.9396-10.9785-7.1071-12.7111-3.0212-.5925-7.9414-.008-11.0673-.1494-4.7992,6.2559-6.5225,12.8072-6.6375,19.8263-2.2646,15.6874,18.6637,42.8069-5.9683,43.123-1.8147.0667-3.2941-.0245-5.0349-.1285-.311-.0471-.6055.2257-.5888.2788-.2367,9.6777.2448,19.4285-.5091,29.1103-2.5535,51.5522-42.8503,101.333-28.1633,153.4004-.8823,3.1114-5.8605,8.0534-9.2238,5.1565-5.8306-4.7254-12.209-9.0981-18.3257-13.5349-25.4374-16.7853-40.658-42.9355-52.1974-70.3228-.3013-.4047-.6579-.5225-.9173-.2292-.7526.9289-.4664,3.2859-1.3921,4.5499-2.436,4.5885-7.3039,14.4903-12.5707,14.2724-3.4038-.9093-5.8166-2.2612-5.8125-6.6575.4834-30.0976-3.4227-60.9867-6.8462-90.9848-2.9416-19.4732-10.7328-37.2031-16.6724-55.9135-5.6952-18.092-5.2105-34.3603-2.1652-52.1465.0224-1.2599,1.0642-1.7807,1.4081-2.9613.182-.7283.5319-1.1362,1.2339-1.3981,3.9981-1.4682,5.2609-4.1547,5.189-7.3586-.1376-5.3336-3.4644-11.2143-4.3744-16.1489-9.2887-40.1894,5.5937-82.0297,44.4245-99.7497,3.8968-1.5559,9.8647-.4361,11.8547-4.7623,3.0897-8.7582-.9589-13.8306-8.0734-20.3821-33.9731-37.0632-110.7433-72.5434-159.0519-87.8797-24.0593-7.5242-53.6323-13.2282-77.4844-4.3467-18.3824,5.9344-34.4074,27.3115-19.2338,43.5842,10.2507,12.1841,21.897,23.3305,33.2861,34.5842,52.3851,49.5007,96.1539,125.9745,75.9266,199.9331-9.6859,32.8592-45.6576,84.0008-70.556,115.9062-24.0398,30.4412-52.6821,55.6225-78.6007,84.4005-46.2479,49.7603-98.9496,94.6006-161.8193,124.8186-50.5525,24.1514-105.5727,22.8543-155.2179-2.9394-50.212-25.7203-98.7927-55.5707-145.9972-86.4464-45.2607-32.5172-80.3262-42.2954-48.9089,28.8379,11.1319,24.4697,26.1347,41.8274,44.1745,64.1362,26.3382,32.2212,54.1106,64.5177,88.7058,88.3463,6.4964,5.0012,3.5628,8.7993.9499,14.6431-.1501.3185-.3646.498-.719.4687-1.464-.4101-3.933-1.2262-5.3905-1.4272l-.119-.0619ZM1779.0472,128.9838c-18.8717-42.8294-49.4494-67.8904-80.3659-101.9125-3.1903-3.121-6.4394-6.0454-9.7291-8.5723-8.3589-6.6285-16.2583-8.0949-25.852-3.236-39.3646,19.7573-80.5755,51.2241-116.8302,80.5532-107.8847,87.9552-191.0977,215.9421-247.6314,342.616-8.7375,22.7919-17.1445,46.7378-17.5803,71.2684-.0544.8874-1.3306,1.351-1.4185,2.4037-2.4221,24.1548-2.1014,47.1308,1.6259,69.473,5.1675,31.0834,17.9449,63.991,38.6105,89.6369.2645.3018.6331.2949,1.3713.4006,1.1018.0069,1.9413.5752,2.8415.0157,3.2293-1.8166,6.7928-3.0947,10.3128-4.2851,11.9367-3.1545,22.7341-10.9251,33.6656-16.0284,8.0776-3.5796,16.6784-5.7298,24.9429-8.8032,2.5915-.9687,5.167-2.0139,7.6581-3.2495.1887-.1062.302-.2064.3315-.3571.0035-.6906-.5003-3.3399-.5829-4.0465-.0864-.3755-.2886-.5973-.5292-.9108-27.8735-35.0339-60.1122-71.0164-63.9973-117.7362-2.2951-23.2999-2.3718-29.0169,13.1694-47.4269,62.6276-71.8301,163.0406-147.3786,251.5685-176.5828-.749-2.4502-5.5519-.3381-7.3439-1.7366-5.8706-3.5974-7.7508-17.7571-9.6418-24.2505-3.2744-13.9209-10.5934-26.8712-17.3624-39.2911-2.3138-4.1319-5.1098-8.4294-8.0198-12.5748-12.661-16.9988-31.255-41.7821-46.8967-46.7483-1.423-.6099-2.7537-1.7727-3.582-2.9038-2.8291-3.8948-2.1339-9.6549-1.0082-14.621.1378-.3367.3796-.4972.712-.709,1.9682-1.2418,6.9447-2.4582,8.1926-2.0513,3.3168,1.0386,8.9413,4.7849,12.9024,7.1735,23.0699,17.0262,44.2645,45.6541,56.8803,71.0309,8.4823,16.8924,20.0511,36.7671,22.593,52.7276.2769,3.5513-2.145,6.6031-2.8031,9.964-.2099.7903-.1758,1.413.6082,1.1786,9.974-2.4404,19.8472-5.6268,29.6265-8.8591,38.0433-13.3781,78.3232-20.8053,117.6892-29.6294,16.4433-3.3846,33.1182-5.9585,49.2025-10.7908.4319-.1609.6112-.504.6326-.9693,1.4238-25.7963-7.7763-50.8528-12.8444-75.6659-2.7174-12.0654-5.8087-22.8286-11.0386-34.3167l-.0796-.1772ZM1537.6537,85.5423c5.1272-4.0111,12.809-7.7252,18.1735-11.9801.8963-.7756,2.0503-1.254,2.6271-2.2135.2986-.5295.396-1.5236.0167-2.0616-3.2874-1.4918-7.0883-2.1658-10.487-3.587-3.5624-1.2818-7.0964-2.653-10.6469-3.9696-14.3947-5.4882-29.4455-8.5423-44.8552-10.1326-218.0232-17.8194-388.8128,222.6873-261.55,415.3217,5.7827,9.5773,10.8359,17.4108,16.0825,23.3935,2.5469,2.7373,5.7278,4.1408,7.5263,7.1581,1.0299,1.5265,3.4922.5699,4.7904.1881,3.3811-1.4216,6.5759-3.763,10.3144-4.127.3262-.0482.724-.1039.8167-.4678.3211-4.5947,1.1523-9.1815,2.3621-13.6416,35.1725-127.4597,162.1005-310.3971,264.7072-393.7849l.1223-.0958ZM1006.4751,154.5673c-88.9175,2.4073-111.7587,104.1935-111.989,176.7793-.473,5.1686-1.3438,10.2736-3.1135,15.2005-1.1353,2.2266-3.601,3.382-5.8326,3.9632-4.3185.9877-9.023-.1944-13.1962,1.4609-21.2683,8.2497-38.1488,42.1848-38.3074,64.1117.238,15.8575,7.3955,31.8987,9.0973,47.5174.7111,2.4076-1.6373,5.5199-3.5216,7.8844-.5132.543-.6875,1.0752-1.4704,1.1996-1.8247.4283-5.8413-1.1147-5.4233.6941,1.059,6.35-1.9195,13.0938-1.7381,18.9371.5133,10.104,3.3127,19.5191,6.7457,28.7412,14.7931,38.464,19.5877,82.4375,20.3318,123.4573.0105.2356.0227.4072.0443.4724.0163.051.0383.0441.0706.0011.7748-1.1069,8.1877-11.774,8.7888-12.6161,6.7726-2.5254,10.019.6869,10.8525,6.2851,4.2359,31.454,27.723,64.4079,55.2607,79.8917.0218-.8733.0038-15.5918.0098-21.8619-.1921-6.8934,2.573-13.8201,4.2399-20.9016,8.5059-35.5718,29.0588-70.6028,26.8283-107.6871.1285-8.0714-.7486-18.3113,2.5013-25.6956,2.2139-4.4847,6.362-6.3154,13.6243-5.4236.3911.0222.6259-.0714.657-.3178-.1521-1.3267-.5793-2.7084-.8266-4.0491-4.085-19.1294-8.0344-41.2695,9.2684-55.719,1.0372-.8461,2.4806-1.3084,3.8399-1.3112,12.8354-.6592,21.3357-.8719,27.0612,12.4066.6216.9373,1.2603,2.1523,2.3114,2.6002,2.5539.055,5.8594-5.3931,7.2509-7.6415,9.3376-16.8699,7.8767-38.2611,9.0939-57.4023,2.0823-31.1306,6.3835-61.9912,17.4944-91.37,8.0302-20.8136,17.2501-42.1073,32.0516-59.1211,9.9502-11.6197,23.0206-21.6241,39.2174-18.5676.1419.029.2462.0501.309.0587.1624.0222.0729-.0564.1259-.1535.021-.0915.0503-.2185.0872-.3792,2.3944-11.4577,14.9429-62.3892,14.2802-63.97-42.8023-28.7788-84.2069-41.988-135.8271-37.4904l-.198.0161ZM1160.4934,189.3078c-4.6804,1.5222-7.7625,15.0104-9.3535,19.7179-3.357,11.1668-9.0369,29.7555-10.6759,40.7119-.5684,3.8893-.7218,7.8244-.248,11.765.2458,1.4816,1.5817,2.1085,2.904,2.4975,4.2453,1.5878,27.5422,7.9004,36.4874,9.0674,3.021-1.1708,3.5119-7.3423,4.337-10.3764,2.677-20.8974,12.0981-39.8509,18.9771-59.4293-1.659-2.7699-6.5878-3.6825-9.6342-4.8221-10.7298-3.6307-21.6532-6.4781-32.6645-9.1249l-.1293-.007ZM1175.9768,303.0538c.3698-1.0028,1.2962-16.2296,1.4475-17.0232-.1901-.384-.6361-.9401-.9523-1.3804-.2159-.274-.4116-.4156-.664-.5037-5.6885-1.6119-12.5658-2.7511-19.2601-4.0999-6.7241-1.3538-13.2908-2.8873-18.6407-5.3346-2.8329-1.2462-4.7392-3.2907-6.8285-4.8052-3.2947-2.4603-8.0908-3.1864-12.0753-2.1048-14.0016,3.5287-31.063,24.4207-36.2014,35.6987-3.0464,7.2226-10.2605,24.6259-11.6078,27.8051,26.7327-6.4586,54.6997-18.3097,82.5404-23.9956,7.3354-1.5964,14.7758-2.9402,22.1584-4.2325l.0838-.0237ZM1602.8357,289.5852c-.974,0-.974,1.5,0,1.5s.974-1.5,0-1.5ZM2024.9089,403.5463c-.3492-.1085-1.07-.1709-1.5531-.1129-1.1684.1251-1.9888.7163-3.0207,1.2837-60.4949,30.362-127.6322,52.7492-191.8948,74.2003-113.5723,38.0418-216.5038,88.7858-315.3705,159.2819-22.4767,16.7701-44.2124,35.1806-62.4508,55.805-6.8849,8.0625-13.327,17.7816-20.8709,25.4176-10.8099,12.0329-25.8199,11.1083-35.553,25.0491-3.6943,5.3266-6.3267,11.2061-8.7142,18.0078-7.2322,21.0053-9.4824,47.6062-11.6095,67.1674-2.9909,27.0548-7.9924,49.8668-19.9484,74.7129-1.4334,3.2704-2.9438,6.5921-3.7835,9.9812.8269-.2167,13.732-3.9628,19.3899-5.5906l2.5526-.7372c206.9779-54.4258,439.9115-255.8958,589.1175-407.0758,20.9034-21.7582,62.9949-68.0113,63.8259-97.3448l-.1166-.0455ZM1359.4968,474.4961c-1.4704,1.5541-5.8511,6.8164-7.8218,9.7736-2.6543,4.109-4.0875,8.9361-4.5561,13.7861-1.3671,29.8479,10.5412,61.8128,28.0674,85.5818,1.9462,1.9347,4.0097,3.6906,6.0796,2.7521,3.7408-2.4374,8.2438-5.8736,11.7891-8.9786,10.8558-9.7596,29.9341-33.5748,33.1513-47.408,2.0697-9.4325,3.0613-24.7595,1.6607-32.1035-.1825-.8845-.5918-1.4031-1.0755-2.2781-2.3042-3.7266-6.2111-9.5586-9.0366-12.9584-1.4401-1.648-8.8339-5.9377-12.8499-7.6027-5.0546-1.935-16.8424-3.4322-24.3976-3.9837-6.6044-.3362-15.8495-1.3036-20.9208,3.3341l-.0896.0854ZM1267.5399,508.6672c-.4074-.1608-1.3245.1555-1.9565.1906-1.1616.2351-1.875.1982-2.547.404-3.9679,2.0485-7.9899,4.3193-12.0222,6.4263-58.1487,30.9238-119.9466,58.9856-173.944,96.3171-16.7248,11.7616-39.6203,29.6693-51.8835,45.1451-4.9496,6.4572-7.6648,11.6493-6.4453,19.0422.0824.1416.2029.2458.3567.3185,1.1657.3224,2.3966.6545,3.5635,1.0967,3.4655,1.2598,6.938,2.9965,10.2509,3.4213,28.7398,3.8482,56.6034-3.8637,84.5331-9.2139,33.5433-6.9693,68.4596-3.9008,101.9517-11.0694,22.2177-4.5392,44.1272-11.5972,65.8535-17.8058,2.1416-.9295,1.9857-2.2112,1.0821-4.2918-1.234-3.5124-2.7618-6.8864-4.3278-10.2601-18.3893-37.0727-15.1066-79.725-14.439-119.6425l-.0261-.0783ZM849.1837,1014.009c4.1695-.2906,8.4012-1.1639,12.5652-1.8534,80.1629-16.1868,162.6219-20.7981,241.7138-42.0685.4473-.0926.8165-.3046,1.0421-.7138,1.6247-3.2756,3.03-6.6642,4.3435-10.0775,3.9974-10.4351,7.0046-21.3141,11.4662-31.5615,5.5735-12.6524,13.3275-26.8229,19.8814-38.1881,4.2944-7.4497,9.1249-14.6661,14.6223-21.2713.2784-.343.3856-.5508.2791-.6925-.2279-.3328-.9078-.8302-1.8422-1.4088-16.4934-9.739-35.3473-14.4655-54.4434-15.7047-81.4332-3.8993-160.5779,30.8515-207.9777,97.5702-8.8178,12.0537-13.7726,25.6857-21.3367,38.3934-5.8046,9.8406-13.8935,18.2158-20.3482,27.5182l.0346.0583ZM1378.717,919.6321c-.2355.1061-.2499.2996-.3388.5829-.2306,1.3292-.0977,2.474.0473,4.1427,7.0799,37.0238,5.6226,71.2556-13.7489,103.9375-3.8166,6.8604-12.2701,15.1969-14.2928,23.8761-1.1158,4.251.2072,9.2037,4.0306,12.0447,3.2205,2.3247,8.2693,2.9259,13.4617,2.7117,14.4925-.9274,25.9483-5.2806,39.6767-11.3885,78.5478-35.9086,112.5243-102.9498,118.0935-184.9503.1756-3.5509-.0986-7.2475-.1631-10.7854-47.2498,22.9215-94.3938,49.186-146.6664,59.7913l-.0997.0373Z"
      style="fill: #070606;" />
    <path
      d="M1104.0857,1123.5852c-.8394-3.8575,1.8117-3.0801,4.4725-3.7304,19.007-4.6457,31.5612-7.3378,49.0622-16.9848,37.9322-20.909,63.1161-47.9954,90.4702-80.5298,17.8762-21.2616,34.972-41.7987,46.7867-67.2133,13.0336-28.0365,25.9548-65.2337,33.8084-95.1916,9.796-37.3674,12.8573-77.9628,34.2571-111.2429,15.5557-24.1916,40.7005-41.0521,61.3978-60.1022,5.1888-4.7759,9.8488-10.1713,15.0089-14.9865l.0452-9.0819c-2.7859-2.2662-6.4752-4.0944-9.8347-2.219-28.9816,28.7313-66.254,51.181-85.7578,88.2491-17.0592,32.4222-20.2943,67.0733-28.902,101.598-12.6301,50.6582-33.7436,105.7913-66.8075,146.1925-31.1702,38.0872-75.3468,88.3868-124.1643,102.3357-17.4733,4.9927-46.4639,11.8362-64.1062,12.5218-5.5859.2171-8.7647-3.7521-14.3043,2.3026l3.0677,12.5829c-18.8957.5901-53.6636.4364-71.1774-4.5726-1.7115-.4895-3.562-.6949-3.8224-2.9207,32.8535-8.2866,63.6446-25.6654,86.2889-50.9676,9.3917-10.4941,20.6766-25.7579,28.3903-37.6097,27.9815-42.9923,37.4189-97.0613,65.5861-141.4139,4.0793-6.4233,7.3504-11.9348,14.0179-15.9761,2.8302-9.7808-3.4621-15.8224-10.8002-20.7727-40.0716-27.0324-125.0552-14.5844-168.4868,1.9798-40.9319,15.6109-81.3219,49.7977-107.1531,84.8469-18.4874,25.0849-24.8704,52.423-51.0718,73.4282-12.2267,9.802-38.8282,15.679-54.7483,20.2517-34.3592,9.8688-66.2318,16.8165-101.369,23.131-4.7621.8558-10.3781-1.5021-11.1544,6.0956-17.3308-5.7475-32.0535-14.0589-48.4584-21.2916-22.3427-9.8506-51.9876-20.3668-75.6588-26.3412-7.1707-1.8098-14.5769-1.7299-21.3989-4.1011-11.9915-4.1679-22.0606-12.8366-35.3344-14.1656-35.6383-3.5682-66.7215,10.7328-98.7139,23.7662-3.4-3.3148-6.932-6.0643-10.9502-8.6021-51.0984-32.2719-113.536-67.3782-172.9853-79.7647,1.0781-4.581,4.9754-6.713,2.265-12.0245-1.8954-3.7143-16.5508-12.6583-21.0202-16.4703-26.5411-22.6376-49.4289-48.8904-71.2422-75.7578-22.8237-28.112-39.8868-47.91-51.4296-83.5704-4.0072-12.3799-10.597-33.4239,8.6136-34.2047,18.1995,4.5598,31.9124,14.8024,47.2197,24.8714,28.1475,18.5151,56.6953,36.5543,86.0632,53.4368,21.932,12.6079,45.6047,26.7733,68.5305,37.2195-.8195,2.8163-4.6374.162-6.358-.399-38.9043-12.6842-65.0976-25.9302-100.6072-44.8858-5.6897-3.0372-16.4475-9.288-21.9609-11.0454-4.8287-1.5391-9.7028.5517-9.1638,6.0592.5662,5.7848,16.7796,11.0156,22.1247,13.9862,13.9194,7.7357,28.6117,17.9266,42.9262,24.5738,24.6788,11.4601,61.5932,23.4232,88.0283,31.9717,16.7765,5.4251,40.5466,13.3269,57.6928,14.3072,38.184,2.1832,72.0759-7.2815,105.8174-23.3186,50.906-24.1954,95.9671-64.7848,134.2898-105.7102,40.2582-42.9924,74.9579-88.4515,113.2158-132.7842,33.9873-39.3841,76.3363-97.5249,117.1137-127.3866,3.1097-2.2772,6.2541-5.8281,10.3814-5.3683-3.3213,19.0463-3.7693,35.2457,2.2448,54.0052,6.4871,20.2347,14.8898,38.8486,17.1539,60.8461,2.2073,21.4456,4.9306,44.4552,6.1475,65.8525.3103,5.4561-1.4946,21.2304,1.4174,24.0755.8764.8563,2.8303,1.356,4.0335,1.98,5.6033.6152,10.8134-10.4326,13.1816-14.8362.8893-1.6536.2009-3.9384,1.5679-4.4198,3.7804,5.0325,5.2565,12.0426,7.9625,17.5376,7.6617,15.5587,18.7746,31.6927,31.7517,43.2483,9.6449,8.5885,21.5095,15.7475,31.5621,23.967,3.2556,2.6067,8.8016-2.9611,9.0593-6.0266-.484-4.59-2.6925-8.8436-3.1211-13.4406-4.0402-43.33,23.7093-85.4385,29.9269-127.651,2.0131-13.6673,1.7429-27.3315,1.6078-41.1424,29.94,2.6132,13.7816-18.9473,12.1049-35.3464-1.1195-10.9498-.1221-18.3972,6.1062-27.4365l10.8587-.0283c1.893.5736,6.1853,9.7157,7.2197,12.2803,2.2699,5.628,3.17,18.2528,10.959,17.6295,6.0503-.4842,4.6648-9.8552,5.9119-13.6879,3.1691-9.7396,14.2998-16.0088,16.9897-31.0103,5.7243-31.9243,3.257-65.1834,9.7239-96.7761.914-4.4649,5.5261-23.0099,7.2826-25.7174,3.7047-5.7108,20.0292-9.8994,26.8203-12.1797,17.5815-5.9037,36.0149-12.0344,54.0015-16.4985,4.2373-1.0516,28.5072-6.7985,30.0285-5.2287-.3777,10.5521,1.7507,21.0531,2.9972,31.5045-2.9128-.8942-4.3444-1.4977-7.5332-.887-14.8529,2.8449-33.8472,11.3331-49.1264,15.4774-19.5183,5.2941-39.8085,6.9774-58.9092,13.2664l.072,5.1397c32.883-5.4631,65.1501-13.8386,97.1718-23.5716,6.1784-1.8779,12.2462-4.2954,18.325-6.425,5.2481,41.0516,16.5021,74.9828,36.8866,110.8634,8.6382,15.2048,18.9165,29.48,29.1124,43.6288-1.4435-.0253-2.8284.4878-4.0808,1.1708-43.5978,23.7756-88.6166,45.7135-131.4095,71.0957-26.4937,15.7145-88.7297,62.7606-99.2509,82.249-3.1913,5.9111-5.2186,20.6587,5.2921,27.6873,3.1768,2.1243,8.1899,1.0352,7.4501,5.305-14.5673-.4654-26.1524-3.5674-39.7031-4.5468-8.6204-.6231-26.4059,1.4235-19.6701,10.6336,3.1908,4.3629,11.4788,4.0006,16.5312,4.5052,17.9913,1.7967,36.1647,5.471,54.1785,7.3215,77.4417,7.9553,173.5032,1.5473,247.077-25.7501,4.0531-1.5038,18.8625-7.8041,20.1994-10.3505.9542-1.8175,2.1071-3.8308,1.8871-5.8129,7.6076,3.6929,10.9208,19.394,20.2297,18.0435,3.5931-1.0892,6.0635-4.0924,9.3902-5.6736,19.4744-9.257,41.4333-17.5939,61.4413-25.5587,4.4818-1.7841,22.0298-10.4341,23.7485-13.8124,2.3405-8.065-5.6297-12.0235-9.8138-17.2444-2.6824-3.3471-19.7657-25.2123-19.4174-26.8337,21.2315-18.5048,48.9419-45.9137,52.3267-75.2655,2.0629-17.8883.3926-32.8419-11.9039-46.4063-5.0329-5.5518-12.3891-9.1167-19.09-12.41l-33.4079-5.5854c6.4228-5.0929,11.2037-11.4749,17.2417-17.2583,20.7132-19.8399,40.8811-36.9148,63.7549-53.9951,14.8793,3.0636,22.2476,1.9522,28.7878,16.9622,4.943,11.3445,10.0477,32.5162,23.295,36.705,17.4827,5.528,36.3271-.7693,53.7538-2.5806,62.1938-6.4643,124.6213-14.4394,184.0718-36.4282,39.2476-14.5164,87.3978-31.4734,120.9787-56.0213,11.9524-8.7373,19.7729-17,18.1558-32.9321-1.5907-15.6717-16.1794-22.6012-29.7083-25.7896-21.2716-5.0132-34.5262-2.3159-55.0383-1.8692-20.1191.4382-40.1997-1.2645-60-1.5924-21.6674-.3589-44.257,1.5311-65.2962-1.4538,3.5374-2.1448,9.0196-3.2671,13.119-4.131,36.1079-7.6094,72.872-14.6935,108.7568-23.2431,7.0318-1.6753,15.4561-7.0047,22.6012-5.3534,25.2184,5.8285,64.8668,23.8668,87.5535,36.9471,23.16,13.3532,37.4675,35.3873,63.4079,43.0921,17.5531,5.2136,31.2154,6.8429,47.5955,16.9045,12.2341,7.5149,25.5757,18.1166,13.9675,32.5353-18.2659,22.6883-65.816,35.873-93.0049,46.4951-17.8316,6.9663-35.5741,14.9733-53.588,21.412-50.4955,18.0484-100.4299,30.6079-149.9501,52.5499-87.7593,38.8855-225.3737,109.6166-289.2478,180.2522-10.1507,11.2252-18.7173,25.7064-30.6739,35.3261-6.602,5.3117-15.3079,6.1267-21.802,11.198-23.6955,18.5038-31.275,77.242-33.7807,105.7193-1.8052,20.5163-3.969,31.081-10.7953,50.7047-11.8452,34.0518-24.4719,61.5633-45.5216,90.9784-32.7168,45.7188-85.2918,100.5709-134.6028,127.8972-22.9718,12.7302-39.2649,18.7513-65.5343,22.2157ZM1970.69,346.9396c-10.8478,1.4589-34.2516,10.417-43.0477,16.9522-3.6506,2.7123-16.3253,15.1938-18.7445,18.7562-3.3322,4.9068-3.5564,11.2965,2.1898,14.2444,3.4803,1.7855,6.6968-1.3306,10.0764-1.9784,17.6472-3.3825,35.8611-5.6365,53.3205-9.68,7.9724-1.8464,27.3516-6.8527,29.3176-15.6764,1.7985-8.0718-.7262-14.4041-7.1586-19.2801-6.4661-4.9015-17.9842-4.4096-25.9534-3.3378ZM1567.1902,460.9397c-19.1446,2.5652-40.2172,15.535-51.2933,31.2067-3.0543,4.3216-7.7677,14.7129-4.6228,19.5019,3.6963,5.6287,30.4704,4.7213,37.6078,4.4831,14.2483-.4755,34.2626-1.4616,47.6184-6.3816,10.6175-3.9113,22.2009-11.8738,22.1989-24.4183-.004-23.8937-33.8467-26.7584-51.509-24.3918ZM1274.5543,846.3003c-5.6852,1.6951-6.163,15.2601-7.6926,20.8109-15.8602,57.5552-47.3139,95.106-88.4639,136.5368-4.5779,6.4667-2.9438,14.0569,5.968,13.549,6.213-.3541,6.9358-5.3452,10.4309-9.1509,31.6521-34.4657,61.5798-63.6988,78.4476-109.0524,3.537-9.5103,14.1677-41.8061,10.1134-49.9303-.4733-.9484-2.2051-2.4503-3.246-2.7576-1.8182-.4367-3.7514-.5439-5.5573-.0054Z"
      style="fill: #302d28;" />
    <path
      d="M1675.5857,282.0852c21.0392,2.9849,43.6288,1.0949,65.2962,1.4538,19.8003.3279,39.8809,2.0306,60,1.5924,20.5122-.4467,33.7668-3.1439,55.0383,1.8692,13.529,3.1884,28.1176,10.1179,29.7083,25.7896,1.6171,15.9321-6.2034,24.1948-18.1558,32.9321-33.5809,24.5479-81.7311,41.5049-120.9787,56.0213-59.4505,21.9888-121.878,29.9639-184.0718,36.4282-17.4268,1.8113-36.2711,8.1086-53.7538,2.5806-13.2474-4.1888-18.352-25.3604-23.295-36.705-6.5401-15.01-13.9085-13.8986-28.7878-16.9622,46.6527-34.8363,93.7843-63.8234,149.2104-84.0396,10.3318-3.7685,63.0022-21.9233,69.7896-20.9604Z"
      style="fill: #3f3935;" />
    <path
      d="M823.5857,463.5852c.9559-7.8626-2.8647-12.1526-10.5083-8.2544-3.5467,1.8088-15.8756,11.8001-19.5311,14.965-39.76,34.4234-79.1384,86.9931-113.9556,127.5444-22.9176,26.6919-43.1934,55.677-66.7158,81.7842-33.0295,36.659-68.6352,75.0086-106.5339,106.4661-24.0199,19.9374-48.5627,32.3584-76.7927,44.7073-10.2865,4.4997-14.9088,9.0976-27.0634,11.9366-22.1821,5.1812-58.2074,9.9286-79.8807,2.5313-2.598-.8867-5.3672.4883-4.5184-3.6804,70.1683,11.7753,137.5899-33.1893,189.7531-74.9969,26.252-21.0403,47.3864-40.355,69.7518-65.2482,26.1553-29.1115,54.8131-54.1106,79.5006-85.4994,21.4001-27.2088,60.5851-82.5426,69.8061-114.6939,17.5213-61.0927-11.6341-126.9392-50.3104-173.3129-18.0345-21.6237-41.3355-40.6822-59.2888-62.2112-13.0781-15.6827-1.0584-33.2503,14.7223-40.8528,25.0447-12.0655,58.0694-5.5513,83.5761,2.5544,47.1758,14.9918,124.2801,50.8449,157.4845,87.0155,6.8733,7.4873,11.9743,9.3784,8.3177,21.808-3.4658,3.2911-8.0705,2.5373-12.3889,4.1116-7.3908,2.6944-20.1006,12.2333-25.0766,18.4234-20.6054,25.6331-24.9392,49.2524-18.5213,81.3261,1.5883,7.9374,9.8996,20.2403-1.8263,23.5763ZM665.6902,228.4397c-4.8642.6516-23.5984,5.3715-23.6641,10.8707,3.0495,9.0892,13.8167.6856,19.0825-.4523,28.7362-6.21,58.6466,5.3983,84.8626,16.5916,35.4482,15.1351,84.8244,41.3361,114.3695,65.6305,4.2971,3.5334,8.4319,11.9106,14.1602,5.1589,1.4179-4.8355-4.9478-9.8576-8.161-12.6581-31.4942-27.4496-87.9398-54.3233-126.774-69.726-26.3509-10.4515-43.7089-19.4563-73.8757-15.4152Z"
      style="fill: #302d28;" />
    <path
      d="M823.5857,463.5852c-.2679,2.2033-1.4712,2.8348-1.5,3-4.1273-.4598-7.2717,3.0911-10.3814,5.3683-40.7775,29.8616-83.1264,88.0025-117.1137,127.3866-38.2578,44.3327-72.9576,89.7919-113.2158,132.7842-38.3227,40.9254-83.3838,81.5148-134.2898,105.7102-33.7414,16.0371-67.6334,25.5018-105.8174,23.3186-17.1462-.9803-40.9162-8.8821-57.6928-14.3072-26.4351-8.5484-63.3495-20.5116-88.0283-31.9717-14.3145-6.6472-29.0068-16.8381-42.9262-24.5738-5.3451-2.9705-21.5585-8.2013-22.1247-13.9862-.539-5.5075,4.3351-7.5984,9.1638-6.0592,5.5134,1.7574,16.2712,8.0081,21.9609,11.0454,35.5096,18.9555,61.7029,32.2015,100.6072,44.8858,1.7207.561,5.5385,3.2153,6.358.399,16.7216,7.6192,31.1723,11.9243,49.5,15-.8488,4.1687,1.9204,2.7937,4.5184,3.6804,21.6733,7.3973,57.6986,2.6499,79.8807-2.5313,12.1546-2.839,16.7769-7.4368,27.0634-11.9366,28.23-12.3489,52.7728-24.7699,76.7927-44.7073,37.8988-31.4575,73.5045-69.8071,106.5339-106.4661,23.5224-26.1072,43.7982-55.0923,66.7158-81.7842,34.8172-40.5513,74.1956-93.121,113.9556-127.5444,3.6555-3.1649,15.9845-13.1562,19.5311-14.965,7.6437-3.8982,11.4643.3918,10.5083,8.2544Z"
      style="fill: #3f3935;" />
    <path
      d="M1048.5857,1128.0852l-3.0677-12.5829c5.5396-6.0547,8.7184-2.0855,14.3043-2.3026,17.6423-.6856,46.6329-7.529,64.1062-12.5218,48.8175-13.9489,92.9941-64.2485,124.1643-102.3357,33.0639-40.4012,54.1774-95.5343,66.8075-146.1925,8.6077-34.5247,11.8427-69.1758,28.902-101.598,19.5037-37.0682,56.7762-59.5178,85.7578-88.2491,3.3596-1.8753,7.0489-.0472,9.8347,2.219l-.0452,9.0819c-5.1602,4.8152-9.8201,10.2106-15.0089,14.9865-20.6973,19.0501-45.8421,35.9106-61.3978,60.1022-21.3998,33.2801-24.461,73.8755-34.2571,111.2429-7.8536,29.9579-20.7748,67.155-33.8084,95.1916-11.8147,25.4146-28.9105,45.9517-46.7867,67.2133-27.3541,32.5344-52.5381,59.6208-90.4702,80.5298-17.5011,9.647-30.0552,12.3391-49.0622,16.9848-2.6608.6503-5.3119-.1271-4.4725,3.7304-1.4351.1893-3.0549-.1753-4.5,0l-.929-1.3421-2.0672-.1543-.0038,2.9963c-14.8438,1.5556-33.0644,2.5336-48,3Z"
      style="fill: #3f3935;" />
    <path
      d="M1299.7669,664.8823c2.4637,1.5078,3.4457,4.3572,2.2107,7.2434-2.3244,4.9179-7.1853,7.174-12.2455,9.5057-100.4052,40.5239-218.367,38.6846-323.1257,21.1657-4.1799-1.4415-7.1688-3.8265-6.9671-7.2725,1.2426-7.2291,12.486-7.3974,18.5856-7.1311,10.9261.5197,21.1233,2.6448,31.9646,3.6556,6.5705.5927,13.5395.8039,20.0094,1.5718,4.7313.3306,9.152,1.57,13.7717,2.5196,3.4508.6617,6.7281.9665,10.315,1.3797,79.9711,2.7862,159.3022-1.3462,234.0117-32.6837,4.3532-1.3289,8.2167-1.8556,11.3528-.0256l.1169.0715Z"
      style="fill: #3f3935;" />
    <path
      d="M1045.5857,694.5852c27.595-1.3964,47.6722-6.0379,74.3957-10.3543,38.6675-6.2456,76.705-5.2921,114.9834-14.0166,19.9677-4.5511,39.5905-12.0907,59.5623-16.0824.1435,3.7262,4.7736,8.6918,6.3751,11.6447-3.2372-.1672-6.6801-2.7748-9.8545-1.6879-7.0888,2.4273-15.7446,6.6478-23.0746,9.1339-71.8436,24.367-142.267,26.4575-217.1656,24.3637-2.9277-.0818-6.0382,1.5274-5.2217-3.0011Z"
      style="fill: #302d28;" />
    <path
      d="M1041.0857,694.5852c-.2508.0357-1.9357,2.6047-4.4969,1.4958l-.0031-2.9958c1.1758.0393,2.3693-.2062,3.5238.2205l.9762,1.2795Z"
      style="fill: #302d28;" />
    <path d="M1099.5857,1123.5852c-.1827.0222.2058,1.164-3,1.5l.0038-2.9963,2.0672.1543.929,1.3421Z"
      style="fill: #302d28;" />
    <path
      d="M2025.0823,403.5884c.8596.8745-1.5317,10.0295-2.23,12.0133-12.6734,36.0014-53.4314,77.4968-80.3055,104.1945-80.1074,79.5817-164.6865,155.5373-256.5753,221.9247-94.9106,68.5706-199.1625,136.9499-313.7634,166.2366l-22.1083,6.3851c2.4653-8.4142,7.1919-16.2192,10.1478-24.3456,8.0894-22.2393,11.211-37.9444,13.7476-61.2524,2.6886-24.7051,5.7351-62.7051,19.8125-83.6875,9.1381-13.6203,21.4268-12.7608,32.8175-22.6825,9.3836-8.1735,17.5486-21.3556,26.1714-30.8286,46.6337-51.2319,119.0205-94.3811,179.7548-127.7452,63.6677-34.9756,126.8989-61.8956,195.6942-84.8058,63.4127-21.1177,131.824-44.058,191.5331-73.9667,1.7936-.8984,2.814-2.0636,5.3037-1.4399Z"
      style="fill: #f8f2e9;" />
    <path
      d="M1567.1902,460.9397c17.6623-2.3666,51.505.4981,51.509,24.3918.0021,12.5445-11.5814,20.507-22.1989,24.4183-13.3558,4.92-33.3701,5.9061-47.6184,6.3816-7.1374.2382-33.9115,1.1456-37.6078-4.4831-3.1449-4.789,1.5685-15.1803,4.6228-19.5019,11.0761-15.6717,32.1487-28.6415,51.2933-31.2067ZM1597.5338,489.0309c2.3045-5.6084-7.1472-12.1976-11.472-13.1729-7.3696-1.662-14.5973.5411-21.4772,2.7383-2.0143,1.5204-.2874,2.8862,2.2369,2.9864,3.0511.1211,5.1862-.0269,8.3404.6763,8.2074,1.8299,13.9973,10.3156,22.3719,6.772Z"
      style="fill: #070606;" />
    <path
      d="M1970.69,346.9396c7.9692-1.0718,19.4873-1.5637,25.9534,3.3378,6.4325,4.876,8.9571,11.2083,7.1586,19.2801-1.9661,8.8237-21.3452,13.83-29.3176,15.6764-17.4594,4.0436-35.6732,6.2975-53.3205,9.68-3.3796.6478-6.5961,3.7639-10.0764,1.9784-5.7462-2.9479-5.522-9.3376-2.1898-14.2444,2.4192-3.5624,15.0939-16.0439,18.7445-18.7562,8.7961-6.5352,32.1999-15.4933,43.0477-16.9522Z"
      style="fill: #3f3935;" />
    <path
      d="M1274.5543,846.3003c1.8059-.5385,3.7392-.4312,5.5573.0054,1.0408.3074,2.7727,1.8092,3.246,2.7576,4.0543,8.1241-6.5764,40.42-10.1134,49.9303-16.8678,45.3537-46.7954,74.5868-78.4476,109.0524-3.4951,3.8057-4.2179,8.7968-10.4309,9.1509-8.9118.5079-10.5458-7.0824-5.968-13.549,41.15-41.4308,72.6037-78.9816,88.4639-136.5368,1.5296-5.5508,2.0074-19.1158,7.6926-20.8109Z"
      style="fill: #3f3935;" />
    <path
      d="M665.6902,228.4397c30.1668-4.0411,47.5248,4.9637,73.8757,15.4152,38.8342,15.4027,95.2798,42.2765,126.774,69.726,3.2132,2.8005,9.5789,7.8227,8.161,12.6581-5.7283,6.7516-9.8631-1.6255-14.1602-5.1589-29.5451-24.2944-78.9213-50.4954-114.3695-65.6305-26.216-11.1933-56.1264-22.8016-84.8626-16.5916-5.2658,1.138-16.033,9.5416-19.0825.4523.0657-5.4993,18.7999-10.2191,23.6641-10.8707Z"
      style="fill: #3f3935;" />
    <g>
      <g>
        <path
          d="M1006.5857,154.5852c-.791,3.6835,1.6125,3.2017,4.0982,4.102,4.2686,1.546,8.3805,1.8388,12.3357,4.2141,7.3503,4.4144,25.2534,18.7966,29.8441,25.6559,13.8242,20.6562,14.8589,55.3309-1.2734,74.7825-6.242,7.5263-34.4448,31.5287-35.7936,37.7989-1.0114,4.7017,5.2146,16.9564,5.8281,23.6575,4.3013,46.9814-14.5018,97.9005-41.3508,135.7274-2.2882,3.2238-6.3383,5.9538-8.9476,9.0557-3.0809.5881-1.7908-.7102-2.5164-1.9252-3.4394-5.7592-5.3523-15.611-12.7491-17.2855-16.4546-3.725-18.3042,23.3265-21.8376,34.6044-8.8009,28.0905-13.3186,46.9729-14.6839,76.8161-.1964,27.8581,1.502,55.7637-2.9602,83.2931l-4.7753-6.466c-26.9173-51.0272-60.0468-101.1863-70.2305-159.2658-.4525-2.5808.9953-5.6935-2.9877-6.765.4564-.1784,5.5962-6.5483,4.6302-8.2375-1.5774-16.6987-10.4286-35.805-9.0284-52.4202,1.7105-20.2978,18.4618-53.3931,38.8113-60.1791,6.027-2.0098,12.9553,1.3659,18.177-4.6256,5.1264-13.7959,3.1956-29.0163,4.5015-43.1958,4.8147-52.2783,18.9163-111.9552,68.4178-138.5822,16.5304-8.8918,24.3749-9.2719,42.4905-10.7595Z"
          style="fill: #a73535;" />
        <path
          d="M1006.5857,154.5852c47.4073-3.893,79.7892,5.3764,121.3864,27.8636,5.4203,2.9301,9.6354,6.983,14.9042,9.8287l-14.7921,64.3113c-8.1811-1.9455-19.4311.8373-26.2662,5.9787-22.5617,16.971-35.3949,45.5703-45.3908,71.6092-10.1457,26.4292-14.2605,54.1669-16.8878,82.1122-1.7851,18.9871.0925,48.1617-8.6695,64.8305-1.1288,2.1474-5.8778,10.2051-8.5242,9.4638-2.5813-2.2611-3.1515-5.554-5.2423-8.2658-6.9333-8.9927-14.5509-6.6151-24.7817-6.7463l-2.254.7462c-19.2462,15.3511-13.5713,39.7374-8.9852,60.7646-11.654-1.7332-15.5612,3.1994-16.537,14.2131-1.257,14.1874.9167,26.7996-1.8277,41.6723-4.8473,26.269-17.6481,52.9875-24.4042,79.0958-1.0961,4.2359-5.228,18.8228-5.228,21.772v24.75c-24.9386-13.5934-45.9514-42.9812-53.6262-70.1238-2.2656-8.0124.1524-20.1378-12.4457-16.1914l-8.9215,12.8151c-.2856-4.2067.37-8.6026.0397-12.7961-2.4253-30.793-5.3407-64.1381-14.2689-93.7311-4.897-16.2315-11.6811-27.9238-12.8561-45.7069-.4097-6.2012,3.0762-13.4976,1.57-20.2706,1.7041-.3405,4.7534.4954,6.0088.0048,3.9829,1.0715,2.5352,4.1842,2.9877,6.765,10.1837,58.0795,43.3132,108.2386,70.2305,159.2658l4.7753,6.466c4.4622-27.5293,2.7638-55.4349,2.9602-83.2931,1.3652-29.8433,5.883-48.7257,14.6839-76.8161,3.5334-11.2778,5.3829-38.3294,21.8376-34.6044,7.3968,1.6745,9.3097,11.5263,12.7491,17.2855.7256,1.2151-.5645,2.5134,2.5164,1.9252,2.6093-3.102,6.6594-5.832,8.9476-9.0557,26.8491-37.8268,45.6521-88.7459,41.3508-135.7274-.6135-6.7011-6.8395-18.9557-5.8281-23.6575,1.3488-6.2702,29.5516-30.2726,35.7936-37.7989,16.1323-19.4516,15.0976-54.1263,1.2734-74.7825-4.5907-6.8594-22.4937-21.2416-29.8441-25.6559-3.9552-2.3754-8.0671-2.6681-12.3357-4.2141-2.4857-.9002-4.8892-.4185-4.0982-4.102Z"
          style="fill: #7c1c1c;" />
      </g>
      <path
        d="M1160.515,189.2836c10.1062,2.5735,20.3657,4.9791,30.2334,8.3889,2.8001.9676,11.6638,3.1823,12.2317,5.8157-5.5003,14.5266-11.753,28.7513-15.9911,43.7503-1.9512,6.9056-2.8433,17.5488-5.1687,23.3294-.4546,1.1302-.9429,1.9721-2.1166,2.4631-1.7907.4724-32.4275-7.4179-35.9681-8.8456-1.4615-.5893-2.9413-.6677-3.4845-2.5153-.4093-3.8369-.3527-7.6583.1891-11.4802,1.5637-11.032,7.4917-30.3657,10.8722-41.628,1.2458-4.1504,5.1194-18.4786,9.2027-19.2782Z"
        style="fill: #d5d5d5;" />
      <path
        d="M1177.5857,348.0852c.1157.9703-.1236,2.0335,0,3-6.0789,2.1296-12.1466,4.547-18.325,6.425-32.0217,9.733-64.2888,18.1085-97.1718,23.5716l-.072-5.1397c19.1007-6.289,39.3909-7.9723,58.9092-13.2664,15.2792-4.1443,34.2735-12.6325,49.1264-15.4774,3.1888-.6108,4.6204-.0072,7.5332.887Z"
        style="fill: #3f3935;" />
      <g>
        <path
          d="M1779.0857,129.0852c-15.6171,2.4385-31.3087,4.5084-46.5,9-13.23-20.1864-51.7389-76.2651-75.8203-79.4217-10.3184-1.3525-11.2248,2.3816-8.9463,11.9389,3.6966,3.7999,7.6022,7.4016,11.2712,11.2282,18.9871,19.803,40.3543,37.5376,55.4954,60.7546l-25.5,9c-11.977-20.5001-24.3767-36.2922-41.2194-52.4623-10.5102-10.0905-23.6069-24.3745-38.3066-26.4277-5.8863,2.3261-7.5235,6.9839-5.2373,12.9092,14.5901,15.3302,31.7742,28.3067,45.7686,44.2256,8.5519,9.7279,14.4266,20.2318,20.9948,30.7552-7.777,1.0807-12.879,9.0527-21,9-15.582-26.3301-30.4506-44.2999-53.2549-64.4951-8.6003-7.6162-13.7532-17.9233-27.6149-11.8747l2.1367,13.3529,21.7837,18.6894c16.7543,17.6509,29.1713,35.967,41.9494,56.3275-7.9049,1.8071-13.6103,8.922-21,12-8.622-13.8083-22.8676-32.896-33.7109-45.0391-5.2581-5.8884-26.2038-27.3067-32.2014-29.2957-6.9851-2.3165-14.7019.2354-16.3717,7.8813-2.0904,9.5715,16.196,19.1309,22.3305,25.1571,14.2802,14.028,30.3238,35.2911,41.9535,51.7965-4.2638,4.6869-10.1804,9.2545-16.5,10.5-10.4727-19.441-31.2005-44.8521-48.7281-58.5219-2.1869-1.7056-13.2381-8.4011-15.337-8.7759-1.8457-.3296-7.8523,1.3878-8.7813,2.7011-1.2443,6.3251-2.2689,13.6465,3.9101,17.283,1.7057,1.0038,3.9487,1.0631,5.4988,2.0016,15.8005,9.5655,40.7505,40.9204,49.9375,57.3121-6.5169,3.0114-13.5078,7.251-19.3856,11.3644-49.6867,34.7717-96.4396,76.2592-138.8253,119.1747-30.8166,31.2019-64.2789,60.5185-89.9416,96.0584-12.8643,17.8156-24.0793,38.6003-36.8476,56.9024-.1449-9.3482,1.5226-19.4219,3.6849-28.5651,9.0649-38.3294,27.0928-74.5132,45.5307-108.9693,51.7085-96.6303,122.2082-199.0492,206.5381-268.9619,35.0741-29.0777,81.0082-64.566,121.2128-85.7872,11.6627-6.156,18.7981-8.3867,30.3011.2657,11.1814,8.4104,21.9091,21.538,31.4431,31.5569,25.5455,26.8449,43.754,44.915,59.2892,79.4608Z"
          style="fill: #d5d5d5;" />
        <path
          d="M1537.5857,85.5852c-17.3412,13.6809-35.0225,30.2626-50.2892,46.4608-58.0078,61.5476-107.251,128.0974-149.4951,201.5049-25.6882,44.6383-49.2418,90.7981-63.4891,140.511-1.8076,6.3071-3.615,12.8759-3.8168,19.4288-2.2756-.0487-3.9221.7696-5.9099,1.5946l-8.6291-34.1209c-3.4973-13.8209-7.5708-29.6825-10.5008-43.4992-4.8383-22.8153-5.6135-46.9742-6.4163-70.0837-2.2671-65.2642,20.6259-130.2493,67.5462-176.2962,52.6501-51.67,137.826-72.8302,209.2958-80.9542,6.5852-.7485,11.8496-3.3075,17.2042-4.5458,1.2625-.292,3.0893.1975,4.5,0Z"
          style="fill: #acacac;" />
        <path
          d="M1566.0857,226.5852c5.8231,10.3898,11.7934,21.7016,15.7502,32.9998,2.512,7.1729,5.4282,27.904,11.2322,30.7653,2.8835,2.0054,8.6786-1.6265,7.5204,3.732-6.4216-.2801-13.3763,2.8841-19.5059,5.2497-80.2706,30.979-171.8029,101.5775-228.786,165.714-6.1422,6.9132-15.9537,18.6611-17.1374,27.8629-.9407,7.3127.4519,22.2026,1.5201,29.8326,6.193,44.2342,37.1034,78.1255,63.6992,111.8006l.6878,4.5081c-10.6911,5.3025-22.4938,7.517-33.3651,12.4004-7.7145,3.4653-15.5374,8.8939-23.6161,12.3839-6.5621,2.8349-14.1944,4.3584-20.5202,8.0641l-3.542-.4812c-5.3744-7.274-10.8575-14.3326-15.2219-22.2976-23.7819-43.4014-30.0105-87.837-25.1974-136.8067-.1059-1.1775,1.063-1.6273,1.4821-2.228,12.7683-18.3021,23.9833-39.0869,36.8476-56.9024,25.6627-35.5399,59.125-64.8565,89.9416-96.0584,42.3857-42.9156,89.1386-84.4031,138.8253-119.1747,5.8778-4.1134,12.8687-8.353,19.3856-11.3644Z"
          style="fill: #acacac;" />
        <path
          d="M1267.5824,508.5876c-.2366,4.2156.3381,8.5855.0494,12.7937-2.103,30.6588-1.2413,62.5281,8.1761,92.2315,2.8258,8.9128,7.6467,16.7234,10.6364,25.396.6532,1.8949,1.1508,2.4967-.8435,3.8417-25.6702,7.2564-52.437,16.1485-78.8604,20.1395-24.1984,3.6549-49.0308,2.9326-73.3056,6.1944-34.4481,4.6288-64.9005,16.3587-100.5288,11.8303-4.5141-.5737-9.5597-3.7298-14.1907-4.56-.4823-3.0338-.2933-5.9667.556-8.937,4.5394-15.8764,43-45.2388,57.323-55.1738,57.5064-39.8886,124.9707-69.622,186.4093-103.0907l4.5787-.6657Z"
          style="fill: #f8f2e9;" />
        <path
          d="M1264.5857,495.0852c-3.2398,1.3446-5.654,3.7039-9.6466,3.0812-1.7935-3.7084-5.5435-5.0513-8.3499-8.3357-14.0472-16.44-35.4765-57.7535-43.1653-78.3336-58.7713-157.3093,50.0048-318.0579,206.3275-353.9963,37.4524-8.6103,78.7863-10.1815,115.8577.311,11.1881,3.1666,21.7393,8.3032,32.9759,11.2807.6147,2.766-.8598,2.9262-2.4931,4.2489-5.3177,4.3063-13.4974,8.2923-18.5061,12.2438-1.4107.1975-3.2375-.292-4.5,0,1.0895-7.2042-1.2464-9.0303-7.4879-11.2621-11.7166-4.1895-33.0871-6.1403-45.7159-6.7841-78.0259-3.9778-145.3427,26.1742-197.2975,83.2949l-28.2804,43.7628c-1.2606,5.4778,2.548,8.6045,7.969,7.9985,5.6792-.6349,8.1476-6.1069,12.0617-9.011,4.2841-3.1785,9.377-5.7311,13.5023-8.9977,5.7139-4.5245,10.3183-13.2303,18.7487-13.5013-46.9203,46.0469-69.8133,111.032-67.5462,176.2962.8028,23.1095,1.5779,47.2684,6.4163,70.0837,2.93,13.8167,7.0035,29.6783,10.5008,43.4992l8.6291,34.1209Z"
          style="fill: #d5d5d5;" />
        <path
          d="M1779.0857,129.0852c7.7732,17.2854,9.728,28.842,13.9156,46.8344,4.8841,20.9848,11.4534,42.142,9.9575,64.0356-18.6261,5.6323-38.1877,8.2715-57.2097,12.5435-25.5431,5.7365-52.8673,11.327-78.0101,17.9899-21.0006,5.5652-41.5879,14.0238-62.6504,19.093.1057-3.9275,3.1892-7.0877,2.9799-11.1248-.665-12.8244-21.382-50.6897-28.4828-63.8715,6.3196-1.2455,12.2362-5.8131,16.5-10.5,9.6012,13.6266,19.0728,26.5996,23.6329,43.1171,2.3514,8.5173,2.1776,25.5142,13.126,27.3947,10.8625,1.8658,12.0962-8.7358,11.1403-17.1686-1.5832-13.9655-21.7263-50.7544-29.8991-63.8433,7.3897-3.078,13.0951-10.1929,21-12,7.9986,12.745,15.7349,23.4979,21.0515,38.1985,3.7229,10.2942,5.5526,22.6327,9.3148,32.6852,2.9354,7.8434,7.2572,13.707,15.3947,7.1253,6.6549-5.3826,3.5681-15.2515,1.4954-22.5155-5.9165-20.7359-21.1479-48.7229-32.2563-67.4937,8.121.0527,13.223-7.9193,21-9,10.9594,17.5591,23.7826,36.6994,29.3105,56.9395,2.0348,7.4504,2.3065,15.7544,5.0868,23.1226,11.3037,8.1988,16.083.2792,15-11.7207-2.1886-24.2518-19.2133-56.4869-31.3973-77.3414l25.5-9c14.1701,21.7281,24.1919,42.6993,32.3136,67.4364,2.722,8.2905,1.6939,18.4116,13.198,20.8337,11.9537-3.8717,7.8056-19.1706,5.1546-28.6863-6.3013-22.6183-19.9425-44.6698-32.6662-64.0838,15.1913-4.4916,30.8829-6.5615,46.5-9Z"
          style="fill: #acacac;" />
        <path
          d="M1359.4994,474.4984c4.573-4.4635,13.6931-3.8262,19.9039-3.4816,6.243.3464,19.0548,1.8768,24.7378,3.763,2.8558.9478,11.2705,5.6169,13.37,7.63,1.5124,1.4501,9.9319,13.5623,10.2957,15.2043,1.6553,7.4718.1682,25.8763-1.8897,33.5524-3.5256,13.1508-22.625,37.3109-33.0764,46.4236-3.4932,3.0457-8.2881,6.6931-12.0238,9.0839-5.0741.5111-10.5743-9.8731-13.0116-14.0584-11.7191-20.1244-19.2816-41.2604-20.7664-64.7344-.5322-8.4141.0547-16.5961,4.7731-23.8199,1.1449-1.7528,6.3251-8.2333,7.6874-9.563Z"
          style="fill: #f8f2e9;" />
        <path d="M1602.8357,289.5852c.974,0,.974,1.5,0,1.5s-.974-1.5,0-1.5Z" style="fill: #acacac;" />
        <path
          d="M1732.5857,138.0852c12.7238,19.4139,26.365,41.4654,32.6662,64.0838,2.651,9.5156,6.7991,24.8146-5.1546,28.6863-11.5041-2.422-10.476-12.5431-13.198-20.8337-8.1217-24.737-18.1435-45.7083-32.3136-67.4364-15.1411-23.217-36.5084-40.9516-55.4954-60.7546-3.6689-3.8266-7.5746-7.4283-11.2712-11.2282-2.2785-9.5573-1.372-13.2915,8.9463-11.9389,24.0814,3.1566,62.5902,59.2353,75.8203,79.4217Z"
          style="fill: #070606;" />
        <path
          d="M1671.0857,160.5852c-6.5682-10.5234-12.4429-21.0273-20.9948-30.7552-13.9944-15.9188-31.1785-28.8953-45.7686-44.2256-2.2861-5.9253-.649-10.5831,5.2373-12.9092,14.6997,2.0532,27.7964,16.3372,38.3066,26.4277,16.8427,16.1701,29.2424,31.9622,41.2194,52.4623,12.184,20.8544,29.2087,53.0896,31.3973,77.3414,1.0829,11.9998-3.6963,19.9195-15,11.7207-2.7803-7.3682-3.0519-15.6722-5.0868-23.1226-5.5279-20.24-18.3511-39.3804-29.3105-56.9395Z"
          style="fill: #070606;" />
        <path
          d="M1614.0857,193.5852c8.1729,13.0889,28.316,49.8778,29.8991,63.8433.956,8.4327-.2777,19.0343-11.1403,17.1686-10.9484-1.8805-10.7746-18.8774-13.126-27.3947-4.5601-16.5175-14.0317-29.4905-23.6329-43.1171-11.6297-16.5054-27.6733-37.7685-41.9535-51.7965-6.1345-6.0261-24.4209-15.5855-22.3305-25.1571,1.6698-7.6459,9.3865-10.1977,16.3717-7.8813,5.9977,1.989,26.9433,23.4073,32.2014,29.2957,10.8432,12.1431,25.0888,31.2309,33.7109,45.0391Z"
          style="fill: #070606;" />
        <path
          d="M1650.0857,169.5852c11.1084,18.7708,26.3398,46.7578,32.2563,67.4937,2.0726,7.264,5.1595,17.1329-1.4954,22.5155-8.1375,6.5817-12.4593.718-15.3947-7.1253-3.7621-10.0526-5.5919-22.3911-9.3148-32.6852-5.3165-14.7007-13.0528-25.4535-21.0515-38.1985-12.7781-20.3606-25.1951-38.6766-41.9494-56.3275l-21.7837-18.6894-2.1367-13.3529c13.8617-6.0485,19.0146,4.2585,27.6149,11.8747,22.8044,20.1951,37.6729,38.1649,53.2549,64.4951Z"
          style="fill: #070606;" />
        <path
          d="M1533.0857,85.5852c-5.3546,1.2383-10.619,3.7973-17.2042,4.5458-71.4698,8.124-156.6457,29.2842-209.2958,80.9542-8.4303.271-13.0347,8.9769-18.7487,13.5013-4.1254,3.2666-9.2182,5.8192-13.5023,8.9977-3.9141,2.904-6.3825,8.376-12.0617,9.011-5.421.6061-9.2296-2.5206-7.969-7.9985l28.2804-43.7628c51.9548-57.1207,119.2717-87.2727,197.2975-83.2949,12.6287.6438,33.9992,2.5946,45.7159,6.7841,6.2415,2.2318,8.5774,4.0579,7.4879,11.2621Z"
          style="fill: #e8e8e8;" />
      </g>
    </g>
    <path
      d="M1597.5338,489.0309c-8.3746,3.5436-14.1645-4.9421-22.3719-6.772-3.1542-.7032-5.2893-.5552-8.3404-.6763-2.5243-.1002-4.2512-1.466-2.2369-2.9864,6.8799-2.1972,14.1076-4.4003,21.4772-2.7383,4.3247.9753,13.7764,7.5645,11.472,13.1729Z"
      style="fill: #e8e8e8;" />
    <g>
      <path
        d="M1378.6596,919.6608c52.3694-10.8045,99.622-36.3533,146.9194-60.0756-.2237,3.7161.3414,7.5902.0528,11.2962-3.4919,44.842-13.3298,81.5949-37.8109,119.6891-20.3214,31.6214-68.3507,64.3965-104.6732,73.8268-7.8943,2.0496-24.2669,4.9575-30.1116-1.5128-9.5292-10.5492,6.016-24.9819,11.2031-33.8958,16.38-28.1487,19.7482-52.1363,17.3933-84.7004-.2682-3.7083-4.7121-23.1342-2.9728-24.6276ZM1386.0875,1050.0818c5.546.8673,9.8547-1.6634,14.5285-4.2163,32.1486-17.5599,77.2918-58.4676,96.2478-89.7522,2.2357-3.6898,7.823-13.4138,5.5097-17.0691-4.529-7.1565-9.761,8.0907-11.5518,11.027-20.8247,34.1437-58.2354,66.9585-92.25,87.75-5.5404,3.3866-14.2318,3.9748-12.4842,12.2606Z"
        style="fill: #302d28;" />
      <path
        d="M1386.0875,1050.0818c-1.7475-8.2859,6.9439-8.8741,12.4842-12.2606,34.0146-20.7915,71.4253-53.6063,92.25-87.75,1.7908-2.9362,7.0228-18.1834,11.5518-11.027,2.3133,3.6553-3.274,13.3794-5.5097,17.0691-18.956,31.2846-64.0992,72.1923-96.2478,89.7522-4.6738,2.5529-8.9825,5.0836-14.5285,4.2163Z"
        style="fill: #3f3935;" />
    </g>
    <path
      d="M849.0856,1014.0785c6.7494-9.4,14.8113-17.9845,20.736-28.0074,7.8141-13.2193,12.475-26.6447,22.1116-39.3884,33.4163-44.1913,76.4741-75.4163,130.8181-88.1819,38.2173-8.9774,83.302-14.0986,119.8759,2.2928,2.0797.932,12.477,5.9154,12.4463,7.0414-5.5543,6.6061-10.3993,13.7951-14.7283,21.2597-6.5086,11.2229-14.9047,26.676-20.0512,38.4488-6.0597,13.8619-9.4059,28.8118-16.1374,42.3626-6.0182,1.2296-11.7465,3.4333-17.7366,4.7634-64.669,14.3601-130.5747,21.5569-195.9771,32.0229-13.8055,2.2092-27.4509,5.7677-41.3573,7.3861Z"
      style="fill: #f8f2e9;" />
  </g>
  <g>
    <path
      d="M199.5857,933.0852c59.4493,12.3865,121.8868,47.4928,172.9853,79.7647,4.0182,2.5378,7.5503,5.2873,10.9502,8.6021,31.9924-13.0334,63.0756-27.3344,98.7139-23.7662,13.2738,1.329,23.3429,9.9977,35.3344,14.1656,6.822,2.3711,14.2283,2.2912,21.3989,4.1011,23.6712,5.9744,53.3161,16.4906,75.6588,26.3412,16.405,7.2327,31.1276,15.5441,48.4584,21.2916,7.5402,2.5006,12.6403,4.8518,21,4.5-.8684,4.5993,2.176,2.5016,4.8633,3.3392,52.1299,16.2483,105.7439,24.7395,159.0166,36.0309,28.4713,6.0346,61.9212,17.2167,90.466,20.5346,5.0895.5916,10.7707-.5322,15.654.0954,4.1697.5358,9.3725,3.4949,14.3406,4.4094,25.0553,4.6121,51.6002,7.5001,77.1594,7.5906-2.6458,4.0162-1.5071,2.9037,2.2357,3.0048,19.0619.5149,38.2451,4.1101,57.0661,5.9434,60.9219,5.9344,129.326-3.6755,190.4022-7.4943,52.3947-3.276,102.4503,1.2016,154.4986,6.0935,6.9448.6527,17.5118-2.7619,17.1569,7.9523l-2.8367,3.2658c-8.1213,1.5799-17.9463-1.6643-26.2264-2.3119-30.8043-2.4092-62.2725-4.9761-93.0001-5.9999-16.7011-.5565-31.6455,1.9163-48.0001,3.0924-4.6932.3375-9.5901-.332-14.2928-.0429-2.5101,2.1087.1918,2.7133,2.2635,2.9398,4.0517.4429,9.1996,1.1,13.1142,1.9258,28.6758,6.0488,57.3654,11.2653,85.5447,19.4556l3.9383,3.6757-2.2652,6.5746c-4.421-.3824-8.9979.2953-13.3952-.028-4.9911-.3669-11.5574-2.5123-16.5465-2.954-22.9038-2.028-46.1636-2.32-68.861-1.5466-33.9632,1.1573-68.4856-.1558-102.1384,4.3615l-33.6577,3.0923c-4.9458-2.9407-6.0662-7.62-9-12,5.2083-.2788,10.5979.3854,15.7956.0462,2.5662-.1675,4.8327-1.3907,7.4065-1.5941,43.1368-3.4088,87.3687-5.2772,130.5545-5.9504,1.8027-.0281,5.5982,1.103,5.2398-1.4949-17.4315-1.7391-34.5531-6.4768-51.841-8.9124-40.8395-5.7535-78.477,2.6008-119.1555,1.4055-3.4782-.1022-7.0337.2054-10.5,0-21.8898-1.2969-45.9327-6.3757-68.4062-8.9917-3.6523-.4251-4.5994,1.4086-5.0938,1.4917-.5668.0952-3.1886-2.921-10.5-1.5-10.7902-5.4866-24.7293-4.3958-36.6597-6.0903-82.955-11.782-166.3767-29.9503-247.9571-49.0429-50.0724-11.7186-85.5557-22.0404-132.8415-42.6585-33.2887-14.5149-63.5103-24.1451-98.9408-31.5592-12.4306-2.6012-15.6897-7.3927-25.5415-11.9585-11.7794-5.4592-36.4565-3.4926-49.3943-.7757-15.1466,3.1806-33.0463,11.0394-47.6594,16.8406-4.4925,1.7834-9.1028,6.0897-13.9589,5.0283-2.9711-.6494-12.7253-9.3024-16.7509-11.8296-40.4417-25.3873-84.6959-49.8861-129.3872-67.1128-24.0017-9.2517-47.6259-13.2362-72.9864-7.6741-2.295.5033-5.5434.7091-6.9221,2.8326-3.1511-1.8487-9.5691-6.5615-12-7.5,13.6523-8.5684,31.5947-8.5319,47.2632-9.0289,1.4132-.0448,2.105-1.4472,2.2368-1.4711,1.2095-.2191,4.2524,1.1359,6,1.5Z"
      style="fill: #c4eefe;" />
    <path
      d="M468.0857,1167.0852c17.4973,2.649,33.9831,9.7324,50.9368,14.3132,23.6166,6.381,42.4159,10.5675,66.7666,9.6411,41.9255-1.5951,94.537,5.1395,136.4562,10.6361,15.9411,2.0902,31.5546,7.4443,47.9193,6.0809l2.2779,2.2197c2.2238,5.9531-5.1519,11.3133-9.799,13.9171-16.626,9.3157-45.7597,19.0599-64.4294,24.1121-2.6893.7277-5.9952-1.8074-5.1285,3.08-9.8255-.2832-21.0482-.635-30.7963-1.4537-5.8211-.4889-16.3621-3.9013-21.2945-1.8746-3.617,1.4862-1.5023,3.7189-1.9092,6.3283-30.8099-2.7792-61.3861-6.2747-92.1597-10.5903-22.6809-3.1807-45.0361-5.6412-67.6811-8.8189-10.8595-1.5239-36.1554-5.154-45.6592-9.0908-3.7652-1.5597-1.8686-2.0929-9-3,.837-3.7947-1.7765-2.9933-4.0029-4.1901-17.9607-9.6552-34.6016-21.8711-51.4971-33.3099,7.2133-2.2331,8.5003-2.7982,16.5-3-.8331,3.482,1.7734,3.0478,3.7533,4.4357,44.5248,31.2105,67.0199,34.6191,120.0832,40.4779,82.7367,9.135,149.1546,31.0777,230.1472-5.1782,2.6115-1.169,7.0725-1.701,6.0131-5.232-2.1987-.0259-4.4439.2191-6.6458-.1039-50.3662-7.3881-102.3602-15.6846-153.0543-13.3537-33.6946,1.5493-65.3749-10.9409-97.1233-19.9598-2.1698-.6164-5.8065-2.6892-7.1733.4141-5.1228-5.6254-8.9086-10.6217-13.5-16.5Z"
      style="fill: #c4eefe;" />
    <path
      d="M747.0857,1183.5852c-7.7497-5.0655-17.015-7.023-25.0308-11.7192-11.6697-6.8369-24.4915-20.0142-28.2243-33.2757-24.7867-11.3319-52.0583-18.2439-78.0464-26.9536-15.5142-5.1995-23.5959-11.6925-41.909-9.0119-10.5985,1.5514-7.3533,8.6143-8.3864,15.6135-.8679,5.8802-2.5482,16.2045-7.8201,19.1794-10.106,5.7026-23.5783-1.123-31.8342-7.8312-4.7504-3.8598-9.5573-11.0595-14.2965-14.2035-5.1197-3.3964-21.6783-8.5355-27.5773-8.2836-4.1908.1789-12.5816,5.0895-15.0481,4.4533-7.6709-6.1567,5.7191-9.7514,10.489-10.3923,8.2477-1.1082,21.0477,2.2864,28.722,5.637,16.5262,7.2154,23.8854,28.4679,44.4839,25.5497,10.9861-8.1662,1.2517-29.9523,15.9046-35.0856,8.5836-3.0071,19.8708-2.0267,28.6564-.009,5.0658,1.1634,10.9056,4.7609,16.0089,6.4911l76.1778,25.8272,3.7282.0214c-1.9915-13.8659,13.9689-18.9124,24.8584-20.9009,38.1261-6.9624,92.3165,15.9469,130.7625,25.0254,59.9714,14.1615,125.2174,31.7557,186.3815,19.8685,7.3114-1.421,9.9332,1.5952,10.5,1.5.14,2.3992-1.8048,5.1356-3.9948,5.7577-4.0804,1.1592-14.7383,2.6426-19.3515,3.146-23.8657,2.6041-51.1741-.027-74.99-2.8174-31.5354-3.6949-64.8154-12.2539-95.8075-19.6925-38.0449-9.1314-104.7177-35.166-140.7299-23.5174-7.0168,2.2697-12.6189,6.4708-11.55,14.5471,17.0896,4.3112,34.2219,11.1166,51.7751,13.4752,5.8393.7846,11.9294-.7315,17.8524,1.6476,18.01,1.14,35.5006-2.8404,53.2952-4.5429l-.0256,5.9528c-27.1921,5.2167-55.5415,6.9695-82.8531,1.1735-12.2382-2.5971-24.6671-8.0462-37.1171-10.1262-1.0841,1.0177,2.3889,5.2208,3.2673,6.4761,19.2338,27.4856,57.7803,33.2419,88.2295,41.5205,16.0916,4.375,31.1329,9.3703,48,12,17.2627,2.6914,34.4429,2.9974,51.7033,4.5462,3.6729.3296,7.601-.3108,11.3008-.0499l-.1106,7.3889c-2.7228,2.8627-15.8208-1.1775-20.0967-1.432-35.1492-2.0923-62.7478-5.5577-96.7968-14.9531-11.8129-3.2596-28.8773-11.8549-40.5-12Z"
      style="fill: #50d1ff;" />
    <path
      d="M247.5857,1141.5852l4.9994-.0607c.9766.2303,1.5615,2.0107,2.5006,3.0607,11.6311,13.0043,21.9831,21.7326,36,31.5,3.5967,2.5063,5.8816,4.9179,10.5,7.5,9.3684,5.2379,19.436,9.2604,29.2797,13.5449l26.2203-19.5449c3.8226.5046,7.2828-2.2863,10.5-3,14.5549-3.2291,38.9232-2.2676,52.9288,3.3215,7.8149,3.1186,2.8767,11.9788-3.8972,9.9425-1.1956-.3594-2.2258-1.9734-3.6546-2.3921-9.2338-2.7058-17.783-3.6141-27.3769-3.372-7.9997.2018-9.2867.7669-16.5,3-1.1022.3412-2.7436.0044-4.4934.6886-7.9234,3.0982-17.6684,8.7362-22.5055,15.8038,26.8038,7.2471,54.8787,17.4942,82.4989,21.0076,7.1314.9071,5.2348,1.4403,9,3-1.7786,3.3446-.287,5.0831-5.1248,4.4349-13.8241-1.8521-31.103-5.8614-44.7561-9.304-12.9401-3.2628-29.247-10.6381-41.1814-12.8104-2.3447-.4268-4.6503-.6824-7.0097-.1372-9.2988,10.6605-8.4043,26.5612-3.5907,39.2294,12.7015,33.4266,55.6878,48.9834,88.8446,50.6554,15.7646.7949,31.4072-2.8615,46.6324-1.6324,7.3141.5904,6.623,5.7007,1.1996,8.8284-31.9751,2.7949-64.7006,4.5431-95.0138-8.0143-30.5347-12.6492-57.9671-39.2446-53.9038-74.9033.8769-7.6959,5.5551-13.4223,7.4076-20.3417-11.4554-2.6305-22.3662-8.8127-32.6122-14.6876-1.1058-.634-2.8051-.0477-3.3919-.3171-.5324-.2443-7.4597-6.2331-9-7.5-10.3496-8.5129-20.2976-18.2917-29.9614-27.8243-1.2208-1.2042-2.7153-1.7461-4.1745-2.5135-2.9567-3.0939-.5481-5.2976-.3641-7.1622Z"
      style="fill: #50d1ff;" />
    <path
      d="M747.0857,1183.5852c11.6227.1451,28.6871,8.7404,40.5,12-1.3731,2.5773-5.7617,1.4729-8.2539,1.4977-40.9122.4069-83.6785-3.4406-124.4498-6.0439-61.1531-3.9047-120.2608-13.5518-180.2306-26.7671-2.4272-.5349-8.0678-2.8228-9.5656-.1866-3.6881-4.8889-7.2314-9.8194-10.5-15l98.362,19.388c64.1646,11.7471,129.8989,14.31,194.138,15.112Z"
      style="fill: #c4eefe;" />
    <path
      d="M1108.5857,1182.0852c-.4638,3.3942-.0919,8.3609,0,12-7.2172.3067-14.5737-.4096-21.7962-.0462-27.2159,1.3692-55.4714,2.5532-82.4066,1.5001-51.6891-2.0208-103.3149,2.3011-154.5451,3.0465-2.4981.0363-6.8773-1.0832-8.252,1.4996-16.8671-2.6297-31.9084-7.625-48-12,1.3697-2.5743,5.7623-1.4765,8.2539-1.4977,44.6701-.3796,89.0551.0157,133.5423-1.4561,53.8946-1.7831,109.7536,2.616,163.4948-1.5002,3.2797-.2512,6.2968-2.119,9.709-1.546Z"
      style="fill: #c4eefe;" />
    <path
      d="M439.5857,1143.0852c-13.3302-25.444-12.1691-53.2089,11.2484-72.0016,18.9067-15.1728,43.5412-10.9037,65.6309-5.6277,6.6756,1.5944,17.2625,2.8641,16.1816,10.9023-1.1484,8.5405-9.5275.6907-13.1366-.4473-26.6195-8.3938-55.3242-12.2657-73.1091,13.239-14.1885,20.3473-3.202,41.8876,8.1848,59.9353,3.2686,5.1806,6.8119,10.1111,10.5,15,1.2097,1.6035,2.4892,2.346,3,3,4.5914,5.8783,8.3772,10.8746,13.5,16.5,10.8159,11.8771,35.822,34.0164,51.8482,35.9021,25.8341,3.0398,54.1241-11.125,80.9522-8.9552,4.341.3511,6.8718,1.1795,8.0605,5.4825-1.922,7.6049-6.1068,1.1845-9.5965.5643-8.4265-1.4976-22.0372,2.8179-30.3418,4.1789-19.881,3.2582-45.4054,8.3582-64.9929,2.6478-8.367-2.4392-33.0322-22.3885-39.7168-29.2832-3.7593-3.8774-11.317-16.844-15.7128-18.0372l-8.3563-11.9282c-.3332-.9281-1.8826-1.194-2.1437-1.5718-.8741-1.2649-2.1666-3.2343-3-4.5-2.5098-3.8115-6.8451-10.8869-9-15Z"
      style="fill: #50d1ff;" />
    <path
      d="M67.5857,1092.0852c1.4286,5.1607,21.7131,24.4457,26.9929,29.2516,1.8562,1.6896,2.9947,3.8436,6.0071,3.7484l3.0525,3.6578c20.5343,17.6406,68.309,33.7944,95.1011,30.7457,4.3538-.4954,16.5705-6.1777,18.0118-5.8789,2.5249.5234,3.1298,5.353,1.657,7.5505-1.1163,1.6655-11.296,4.9957-13.9013,5.596-14.8067,3.4115-24.7967-.1478-39.0447-2.2927-3.1559-.4751-6.2145-.5044-9.3764-.3783-.7758-1.9204-22.1422-8.1843-26.5408-10.2092-9.5144-4.38-17.9081-11.0082-27.4592-15.2908-.9405-1.5225-1.4299-2.5506-3.0138-3.699-26.8075-19.4371-49.7108-47.7055-59.6202-79.917-5.2386-17.0286-6.2073-36.1058-3.2766-53.5446,3.0749-18.2967,15.6343-33.7652,32.9141-40.5859,3.3373-1.3173,18.0986-6.5759,19.491-1.4959,1.8389,6.7092-12.7079,7.3642-17.5315,9.4554-15.7234,6.8167-25.0009,20.3244-27.3649,37.1351-3.2195,22.8946.4973,42.5091,9.6525,63.6512,3.2823,7.5798,7.7483,17.3611,14.2494,22.5006Z"
      style="fill: #50d1ff;" />
    <path
      d="M156.0857,1164.0852c.2126.5263-.4758,1.8431.2545,2.6842,2.9108,3.3522,40.3016,21.2938,45.8063,22.505,19.8771,4.3735,48.6843,3.1278,67.9602-3.4182,3.2547-1.1053,9.8973-3.924,11.979-6.7711,1.5403,1.2669,8.4676,7.2557,9,7.5-.7814,2.6614-3.407,3.1273-5.4973,4.2586-23.2522,12.5838-50.6338,14.1442-76.3041,10.7929-5.658-.7387-13.1913-1.9112-18.258-4.242-16.1821-7.4444-32.474-16.2216-47.4246-26.0754-9.5824-6.3158-36.6159-24.8014-41.516-32.734,9.5511,4.2826,17.9448,10.9108,27.4592,15.2908,4.3986,2.0249,25.7651,8.2888,26.5408,10.2092Z"
      style="fill: #c4eefe;" />
    <path
      d="M144.0857,942.0852c2.4309.9385,8.8489,5.6513,12,7.5,16.5189,9.6914,34.4755,21.7583,48.7536,34.4964,1.3349,1.1909,4.6671,4.0951,5.0723,5.4353,1.472,4.8687-3.0569,6.547-7.3594,2.8512-20.0369-17.2113-34.7683-27.8443-58.4666-39.7829-.1866-.094-.4273-1.6115-1.5499-2.1615-3.6991-1.8122-7.9393-4.5203-11.9501-3.8385.8311-3.7788-1.7553-3.0076-4.0058-4.1871-21.1083-11.0626-64.7226-22.8133-88.1741-19.7428-13.6836,1.7916-24.9546,12.2498-32.2643,23.2354l-6.0525.6924c.0134-2.5429-.482-5.097.7313-7.5139.628-1.2509,12.3285-12.7614,14.2289-14.2705,21.715-17.2427,64.5973-7.0173,88.945,1.1279,13.6907,4.58,27.3754,11.2495,40.0914,16.1586Z"
      style="fill: #50d1ff;" />
    <path
      d="M693.0857,1251.0852c40.2308,1.1596,76.9513-1.1369,116.3573-7.3927,17.3427-2.7532,35.1926-3.1871,50.8739-12.1135,2.714,1.815,2.6385,4.4217,2.1645,7.4024-11.7441,5.6496-23.9564,8.23-36.7531,10.4964-63.9941,11.3337-122.7712,10.3688-186.6426,4.6074.4069-2.6094-1.7079-4.8421,1.9092-6.3283,4.9324-2.0266,15.4734,1.3858,21.2945,1.8746,9.7481.8187,20.9708,1.1704,30.7963,1.4537Z"
      style="fill: #50d1ff;" />
    <path
      d="M79.5857,997.5852c-.6889,7.1624-.0523,13.0283,3,19.5-3.7757-.803-3.1186,1.6641-4.0987,4.1015-8.9978,22.3756-8.8948,31.7047-3.0333,54.7805,4.9843,19.6221,14.5461,32.7582,25.132,49.118-3.0123.0952-4.1509-2.0588-6.0071-3.7484-5.2799-4.806-25.5643-24.0909-26.9929-29.2516-9.1758-33.1465-10.7869-60.1926,7.8417-90.4656,1.2735-2.0695.1958-4.9216,4.1583-4.0344Z"
      style="fill: #c4eefe;" />
    <path
      d="M111.4637,869.7249c-1.271-1.4099-1.4338-4.3855-3.3191-6.4546-4.1717-4.5784-18.2372-14.3105-24.0673-16.4267-9.654-3.5042-25.1386-5.8552-30.339,5.6448-3.6135,7.9906,1.0445,24.863,6.3297,31.8645,2.9331,3.8855,17.4337,13.6524,17.8833,15.1209,1.1128,3.6347-.7641,7.7145-4.938,6.4416-1.9545-.5961-11.7658-9.5787-13.7177-11.7901-7.9947-9.0574-12.9715-24.8855-14.1776-36.9208-.6203-6.1903,6.0674-15.5596,11.5216-18.3154,7.573-3.8263,13.8444-3.5416,21.8161-1.4247,26.1547,6.9453,43.6689,33.4362,57.8936,54.6202,1.6442,3.9578-1.8345,8.5875-5.8362,5.8228-2.0536-1.4188-7.2885-15.0886-9.7343-18.7652-2.4156-3.6312-6.9599-6.8048-9.3149-9.4173Z"
      style="fill: #50d1ff;" />
    <path
      d="M980.9542,1292.9572l-7.3722.1266c-.9081-4.2925,2.5148-8.7075.0789-12.5356-3.7797-5.9398-22.1929-4.5193-28.1442-1.2821-11.0757,6.0245-12.1441,29.7806,4.0658,27.3124.1603-2.5597-3.0753-1.1507-5.351-2.8897-4.0759-3.1147-2.5787-12.3456,1.873-14.832,4.8233-2.6939,10.2439-2.255,14.031,1.9281,7.7234,9.9634-.1432,20.2036-10.5511,23.3096l4.5898,6.7388c-.4513,4.5075-7.4171,7.7572-8.9124,2.8314l-.2582-5.7309,3.0774-2.3408c-7.1548-.5762-13.7658-4.5458-16.1643-11.5896-5.3835-15.8094,4.2313-33.2673,21.3747-34.9634,16.229-1.6057,34.9402,4.3515,27.6628,23.9172Z"
      style="fill: #50d1ff;" />
    <path
      d="M115.5857,973.5852c6.0359-.4284,12.4424.0704,18.513.237,2.3331,1.108,4.7581,3.6466,3.9844,6.5031-3.8414,5.3767-6.2498-.1991-9.7371-.7513-10.6908-1.6927-33.1444,3.8809-39.5381,12.9834-7.8508,11.1768-1.3986,24.321,7.2122,32.8435,7.6447,7.5663,21.1379,20.0822,30.1758,25.3242,2.059,1.1942,9.9469,2.5567,8.8864,6.1003-2.1421,7.1583-17.8187-3.7081-20.8976-6.0891-7.4085-5.7293-27.9843-25.9868-31.599-33.651-3.0523-6.4717-3.6889-12.3376-3-19.5.7207-7.4928,6.8137-14.7527,13.5-18,4.9236-2.3913,17.0349-5.6122,22.5-6Z"
      style="fill: #50d1ff;" />
    <path
      d="M1420.5857,1198.5852c-.5246-1.8024-2.1227-1.1427-3-1.5-.1827-.0744-.3277-1.0084-1.1022-1.2037-10.8023-2.7239-31.3515-.7018-36.1388,11.1992l1.5336,4.725,10.8289,3.3937,1.6711-3.0163c3.4194-5.5798,12.8638,4.2232,5.787,8.7327-5.0147,3.1955-13.0918,1.6728-18.1519-1.0083-13.776-7.2991-9.1633-21.3459,3.0421-27.6029,10.9996-5.6389,28.1631-5.9169,39.5903-1.5294,3.4377,1.3199,19.076,8.9296,12.4778,13.0946-5.053,3.1896-7.328-2.3821-10.9627-4.1392-2.3285-1.1256-3.8209-.6975-5.5749-1.1455Z"
      style="fill: #50d1ff;" />
    <path
      d="M1417.5857,1197.0852c.1663.0217,1.1594,1.0299,3,1.5,3.6495,5.1459,3.2138,10.448,3.0043,16.5044h-7.5089s-.002-9.0043-.002-9.0043c-13.0779,5.909-12.1113-10.7793,1.5066-9.0001Z"
      style="fill: #50d1ff;" />
    <path
      d="M1051.4019,1294.7949c1.3925,5.948,13.9683,9.3042,13.7855.5444-.1906-9.1338-12.3661-18.6037-20.6714-19.9506-9.3141-1.5105-10.4466,4.2401-9.3495,12.3766.8467,6.2792,7.4284,12.1009-4.4706,11.2072-2.4671-5.6007-3.6397-9.3645-3.1448-15.6824,2.4777-31.6298,44.9439-7.7645,44.9211,13.5602-.0142,13.2587-16.5715,12.5318-24.4522,6.5504-5.9794-4.5383-4.7667-10.3301,3.3819-8.6058Z"
      style="fill: #50d1ff;" />
    <path
      d="M1078.589,1245.0818c-1.1562-6.4479,4.7961-9.0552,6.7963-14.9454,3.3423-9.8418.3655-20.9072-9.0738-25.6412-13.6877-1.1659-8.5352,22.388,5.282,18.0922l-1.4277,6.8226c-7.8583,5.2196-19.1246-9.7287-19.6169-16.6445-.7802-10.959,11.3816-19.1505,20.9741-13.3635,1.5345.9257,5.7257,5.1817,6.7651,6.7307,6.0736,9.0514,6.4884,25.4992-.0212,34.3836-2.6233,3.5803-4.9729,5.3335-9.6779,4.5655Z"
      style="fill: #50d1ff;" />
    <path
      d="M1129.5857,1162.5852c5.2661,5.0736,8.1175,10.7036,12,16.5,2.9338,4.38,4.0542,9.0593,9,12,.2155.1281.2718,1.0429,1.0279,1.2556,3.1359.8818,11.4244-1.1755,12.4655,2.5011,1.982,6.9992-10.3277,6.0253-14.5909,4.0913-1.2523-.5681-8.5758-6.7905-9.4025-7.848-.2395-.3063-.1106-1.8381-.8285-2.8838-4.9502-7.2117-8.7484-21.5192-18.7014-17.388-4.2789,2.1501-3.391,16.5576-4.4702,21.7719l-2.3891,5.8625-5.1078.1409c-.0457-1.494.0347-3.0048-.0031-4.5034-.0919-3.6391-.4638-8.6058,0-12,.2766-2.0239,3.5218-12.4428,4.6512-14.0968,1.6896-2.4744,4.8462-2.5771,5.8488-5.4032,3.4663.2054,7.0218-.1022,10.5,0Z"
      style="fill: #50d1ff;" />
    <path
      d="M144.0857,952.5852c-8.7095,3.8106-17.8403,8.3542-24.7773,14.9672-1.7772,1.6942-3.8839,3.1896-3.7227,6.0328-5.4651.3878-17.5764,3.6087-22.5,6-.2442-2.993,2.0668-4.1876,3.7522-6.0035,5.7595-6.2056,26.4132-25.7498,33.7478-26.9965,4.0108-.6818,8.251,2.0264,11.9501,3.8385,1.1226.55,1.3633,2.0675,1.5499,2.1615Z"
      style="fill: #c4eefe;" />
    <path
      d="M1140.0857,1191.0852c-8.0739.5558-15.8172,2.2878-24,1.5,1.0792-5.2143.1912-19.6218,4.4702-21.7719,9.9529-4.1312,13.7512,10.1763,18.7014,17.388.7178,1.0458.589,2.5775.8285,2.8838Z"
      style="fill: #c4eefe;" />
    <path
      d="M81.1358,867.1399c9.6494-5.1406,37.2856,11.7425,30.7307,22.4777-3.8685,6.3356-7.776-7.1237-8.432-8.1314-3.4485-5.2975-14.9988-7.2236-20.9258-7.574l-1.3729-6.7723Z"
      style="fill: #50d1ff;" />
    <path
      d="M1379.3526,1237.581c2.3503-.6266,8.9553,9.1252,18.6784,3.6894,1.4818-.8284,2.3828-2.9926,4.0008-3.4942,6.0273-1.8683,8.2621,2.8832,4.2729,7.2788-2.3037,2.5384-11.303,5.7858-14.6985,5.6263-6.042-.2837-20.2544-5.6696-12.2536-13.1004Z"
      style="fill: #50d1ff;" />
    <path
      d="M1358.5404,1188.2798c3.7269-1.1183,7.7177.8148,6.4566,4.9646-.6336,2.0848-5.5343,2.9705-6.7,5.3022-1.3707,2.7418-.3756,12.4324-7.4451,10.5327-6.3308-1.7012,2.1111-19.126,7.6885-20.7994Z"
      style="fill: #50d1ff;" />
    <path
      d="M1264.2893,1201.8917c5.2042,6.4791-2.8088,13.3553-8.7594,9.4986-3.2962-2.1363-.06-12.285,5.0594-10.9926l3.7001,1.4941Z"
      style="fill: #50d1ff;" />
    <path
      d="M1124.7795,1227.3956l1.5635,3.7145c2.1708,5.978-9.1446,6.5027-11.0875,3.5573l-.5435-7.4563c3.7639-1.5424,6.4408-2.1621,10.0675.1844Z"
      style="fill: #50d1ff;" />
    <path d="M472.8868,1250.784c-5.5167-5.5488,4.8039-12.1733,8.0025-7.2554,3.387,5.2075-3.4685,11.8157-8.0025,7.2554Z"
      style="fill: #50d1ff;" />
    <path
      d="M1035.0857,1153.5852c-61.164,11.8872-126.4101-5.7071-186.3815-19.8685-38.446-9.0785-92.6364-31.9878-130.7625-25.0254-10.8895,1.9886-26.8499,7.0351-24.8584,20.9009l-3.7282-.0214-76.1778-25.8272c-5.1034-1.7301-10.9432-5.3277-16.0089-6.4911-8.7855-2.0177-20.0727-2.9981-28.6564.009-14.6529,5.1333-4.9185,26.9193-15.9046,35.0856-20.5985,2.9182-27.9577-18.3343-44.4839-25.5497-7.6743-3.3506-20.4744-6.7453-28.722-5.637-4.7699.6409-18.1598,4.2357-10.489,10.3923,2.4665.6362,10.8573-4.2743,15.0481-4.4533,5.899-.2519,22.4575,4.8873,27.5773,8.2836,4.7393,3.144,9.5461,10.3436,14.2965,14.2035,8.2559,6.7082,21.7283,13.5338,31.8342,7.8312,5.2719-2.9748,6.9522-13.2992,7.8201-19.1794,1.0331-6.9992-2.2121-14.0622,8.3864-15.6135,18.3131-2.6806,26.3948,3.8124,41.909,9.0119,25.9881,8.7097,53.2597,15.6217,78.0464,26.9536,3.7328,13.2615,16.5546,26.4388,28.2243,33.2757,8.0158,4.6962,17.2811,6.6538,25.0308,11.7192-64.2391-.802-129.9734-3.365-194.138-15.112l-98.362-19.388c-11.3868-18.0477-22.3734-39.588-8.1848-59.9353,17.7849-25.5047,46.4897-21.6328,73.1091-13.239,3.6091,1.1381,11.9882,8.9878,13.1366.4473,1.0809-8.0382-9.5061-9.3079-16.1816-10.9023-22.0897-5.2761-46.7242-9.5451-65.6309,5.6277-23.4174,18.7927-24.5786,46.5576-11.2484,72.0016-7.6818-1.8937-16.6445-4.075-24.0244-6.7256-36.699-13.1813-75.3689-27.2883-110.5172-43.9828-17.5409-8.3314-33.1339-20.5076-51.4584-27.2916.1745-.1707-.4621-1.7577.3055-2.6447,2.0496-2.3686,14.6238-11.3713,17.8072-12.9926,30.7103-15.6403,82.9315-3.06,110.8286,14.946,4.0808,2.6339,4.8808,7.0445,12.0562,5.188.0689-2.109.303-4.0462-.7121-6.0325-2.0957-4.1009-22.1809-14.092-27.3769-16.1227-43.1833-16.8766-84.6752-23.5989-120.4085,11.6585-2.9908.4545-5.0413-1.0628-7.5103-2.2454-15.6472-7.4946-42.7225-26.5305-56.1787-6.6936-3.0736,4.5311-2.9124,13.2349-2.3566,18.7337,1.6451,16.2748,16.254,28.9237,27.0456,39.7053-6.4335,6.8103-17.0214,17.1214-26.5319,19.2181-3.7769.8327-15.9706-1.9187-13.8117,5.3663,2.1003,7.0874,18.2926,2.1132,23.3983-.2797,6.1797-2.8963,19.8726-13.206,24.4453-18.3047,10.2198,8.5709,20.8196,16.6729,32.8062,22.6991.5201.7114.3089,3.1348.1938,4.3009-.1839,1.8646-2.5926,4.0683.3641,7.1622,1.4592.7674,2.9537,1.3093,4.1745,2.5135,9.6638,9.5326,19.6118,19.3114,29.9614,27.8243-2.0817,2.847-8.7243,5.6658-11.979,6.7711-19.276,6.546-48.0831,7.7917-67.9602,3.4182-5.5047-1.2112-42.8955-19.1528-45.8063-22.505-.7303-.8411-.0419-2.1579-.2545-2.6842,3.162-.1261,6.2206-.0968,9.3764.3783,14.248,2.145,24.238,5.7042,39.0447,2.2927,2.6053-.6003,12.785-3.9305,13.9013-5.596,1.4728-2.1975.868-7.0271-1.657-7.5505-1.4413-.2988-13.658,5.3835-18.0118,5.8789-26.7921,3.0487-74.5668-13.1052-95.1011-30.7457l-3.0525-3.6578c-10.5859-16.3598-20.1477-29.4959-25.132-49.118-5.8616-23.0758-5.9645-32.405,3.0333-54.7805.9801-2.4373.3231-4.9045,4.0987-4.1015,3.6147,7.6642,24.1905,27.9218,31.599,33.651,3.0789,2.381,18.7554,13.2474,20.8976,6.0891,1.0605-3.5436-6.8274-4.9061-8.8864-6.1003-9.0379-5.242-22.5311-17.7579-30.1758-25.3242-8.6108-8.5225-15.063-21.6666-7.2122-32.8435,6.3937-9.1024,28.8473-14.6761,39.5381-12.9834,3.4873.5522,5.8957,6.128,9.7371.7513.7737-2.8565-1.6513-5.395-3.9844-6.5031-6.0706-.1667-12.4771-.6654-18.513-.237-.1613-2.8432,1.9455-4.3386,3.7227-6.0328,6.937-6.613,16.0678-11.1566,24.7773-14.9672,23.6983,11.9387,38.4297,22.5716,58.4666,39.7829,4.3025,3.6958,8.8314,2.0175,7.3594-2.8512-.4052-1.3402-3.7374-4.2444-5.0723-5.4353-14.2781-12.7381-32.2347-24.8049-48.7536-34.4964,1.3787-2.1236,4.6271-2.3293,6.9221-2.8326,25.3605-5.5621,48.9847-1.5776,72.9864,7.6741,44.6913,17.2267,88.9456,41.7255,129.3872,67.1128,4.0257,2.5271,13.7798,11.1802,16.7509,11.8296,4.8561,1.0614,9.4664-3.2449,13.9589-5.0283,14.6131-5.8012,32.5128-13.6599,47.6594-16.8406,12.9378-2.7168,37.6149-4.6834,49.3943.7757,9.8518,4.5658,13.111,9.3573,25.5415,11.9585,35.4305,7.4141,65.6522,17.0443,98.9408,31.5592,47.2859,20.6181,82.7691,30.9399,132.8415,42.6585,81.5805,19.0926,165.0021,37.2609,247.9571,49.0429,11.9305,1.6945,25.8695.6036,36.6597,6.0903Z"
      style="fill: #d9f6ff;" />
    <path
      d="M1045.5857,1155.0852c.4943-.083,1.4415-1.9168,5.0938-1.4917,22.4735,2.616,46.5165,7.6948,68.4062,8.9917-1.0026,2.8261-4.1591,2.9288-5.8488,5.4032-1.1294,1.654-4.3747,12.0728-4.6512,14.0968-3.4122-.573-6.4293,1.2948-9.709,1.546-53.7411,4.1161-109.6001-.2829-163.4948,1.5002-44.4872,1.4719-88.8722,1.0765-133.5423,1.4561-2.4917.0212-6.8842-1.0766-8.2539,1.4977-30.4492-8.2785-68.9957-14.0349-88.2295-41.5205-.8784-1.2553-4.3514-5.4584-3.2673-6.4761,12.45,2.08,24.8789,7.5291,37.1171,10.1262,27.3116,5.796,55.661,4.0432,82.8531-1.1735l.0256-5.9528c-17.7946,1.7024-35.2851,5.6829-53.2952,4.5429-5.923-2.3791-12.0131-.863-17.8524-1.6476-17.5531-2.3585-34.6854-9.164-51.7751-13.4752-1.0688-8.0763,4.5332-12.2774,11.55-14.5471,36.0122-11.6486,102.685,14.3861,140.7299,23.5174,30.9921,7.4386,64.2721,15.9976,95.8075,19.6925,23.8158,2.7905,51.1243,5.4215,74.99,2.8174,4.6132-.5034,15.2711-1.9868,19.3515-3.146,2.19-.6221,4.1348-3.3585,3.9948-5.7577ZM791.3423,1155.0917l-2.2537,3.7341,5.2373,3.756c4.546-2.8539,1.7803-8.8571-2.9836-7.4901Z"
      style="fill: #d9f6ff;" />
    <path
      d="M1129.5857,1162.5852c40.6785,1.1953,78.316-7.159,119.1555-1.4055,17.2878,2.4355,34.4095,7.1732,51.841,8.9124.3584,2.5978-3.437,1.4668-5.2398,1.4949-43.1858.6732-87.4178,2.5416-130.5545,5.9504-2.5739.2034-4.8403,1.4266-7.4065,1.5941-5.1976.3392-10.5873-.325-15.7956-.0462-3.8825-5.7964-6.7339-11.4264-12-16.5Z"
      style="fill: #d9f6ff;" />
    <path
      d="M462.0857,1176.0852c4.3958,1.1931,11.9535,14.1597,15.7128,18.0372,6.6846,6.8947,31.3498,26.844,39.7168,29.2832,19.5875,5.7104,45.112.6104,64.9929-2.6478,8.3046-1.361,21.9152-5.6764,30.3418-4.1789,3.4897.6202,7.6745,7.0406,9.5965-.5643-1.1886-4.303-3.7195-5.1314-8.0605-5.4825-26.8281-2.1698-55.1181,11.9949-80.9522,8.9552-16.0262-1.8857-41.0323-24.0251-51.8482-35.9021,1.3668-3.1033,5.0035-1.0305,7.1733-.4141,31.7483,9.0189,63.4286,21.5091,97.1233,19.9598,50.694-2.3309,102.688,5.9656,153.0543,13.3537,2.2019.323,4.4472.078,6.6458.1039,1.0594,3.531-3.4015,4.0629-6.0131,5.232-80.9925,36.256-147.4105,14.3132-230.1472,5.1782-53.0633-5.8587-75.5584-9.2674-120.0832-40.4779-1.9799-1.3879-4.5864-.9536-3.7533-4.4357,9.5939-.2421,18.1431.6662,27.3769,3.372,1.4288.4187,2.459,2.0326,3.6546,2.3921,6.774,2.0362,11.7121-6.8239,3.8972-9.9425-14.0056-5.5891-38.3739-6.5506-52.9288-3.3215.2249-3.246-1.9206-4.1225-4.0071-5.7477-3.1633-2.464-9.8128-7.6723-13.027-9.2085-1.8136-.8668-1.7957-2.4325-.2042-3.056l111.7383,19.5123Z"
      style="fill: #d9f6ff;" />
    <path
      d="M451.5857,1162.5852c.2611.3778,1.8105.6437,2.1437,1.5718l8.3563,11.9282-111.7383-19.5123c-1.5915.6235-1.6094,2.1892.2042,3.056,3.2142,1.5363,9.8637,6.7446,13.027,9.2085,2.0864,1.6252,4.232,2.5017,4.0071,5.7477-3.2172.7137-6.6774,3.5046-10.5,3-11.3104-10.144-24.3181-17.4591-37.5955-24.653-5.5325-14.4967,6.1976-8.8859,14.2997-8.3014,20.5135,1.48,42.4872,4.2639,62.9386,7.5616,18.4192,2.9701,36.5068,7.1201,54.8572,10.3928Z"
      style="fill: #c4eefe;" />
    <path
      d="M301.5857,1183.5852c-4.6184-2.5821-6.9033-4.9937-10.5-7.5l6.0918-6.7514c.1221-.9186-.4097-1.5384-.7961-2.2795-3.2535-6.2406-27.796-18.107-35.2989-21.712-1.5325-.7363-5.1557-3.8703-5.9969-.7571-.9391-1.05-1.5241-2.8304-2.5006-3.0607l-4.9994.0607c.115-1.1661.3263-3.5895-.1938-4.3009-11.9865-6.0262-22.5863-14.1282-32.8062-22.6991,1.671-1.8632,4.4712-5.4847,6-7.5,5.4558.0352,7.724,4.8023,11.2444,7.5057,8.4378,6.4796,18.931,13.0131,28.2251,18.2748,17.0154,9.633,40.2932,16.1411,49.0738,35.045l-7.5433,15.6745Z"
      style="fill: #c4eefe;" />
    <path
      d="M291.0857,1176.0852c-14.0169-9.7674-24.3689-18.4957-36-31.5.8412-3.1132,4.4644.0208,5.9969.7571,7.5029,3.605,32.0454,15.4714,35.2989,21.712.3864.7411.9181,1.3609.7961,2.2795l-6.0918,6.7514Z"
      style="fill: #d9f6ff;" />
    <path
      d="M439.5857,1143.0852c2.1549,4.1131,6.4902,11.1885,9,15-6.6217.2505-11.966-3.7748-17.5855-5.6645-50.5514-16.9992-106.2305-35.635-152.4502-62.0503-1.6697-.9542-2.7136-2.8643-3.9866-3.5423-2.377-1.266-4.2955-.3445-5.9777-.7429-.8379-.1984-1.2132-1.5142-4.5-1.5.345-3.6664-2.1648-3.8936-4.4817-5.2719-4.368-2.5986-9.888-4.9495-15.0183-5.2281,3.2416-3.8109,5.6706-5.7421,9-9,18.3245,6.784,33.9175,18.9602,51.4584,27.2916,35.1483,16.6945,73.8183,30.8015,110.5172,43.9828,7.3799,2.6507,16.3426,4.8319,24.0244,6.7256Z"
      style="fill: #c4eefe;" />
    <path
      d="M924.0102,1065.007l-1.3274-6.7709c-10.8634-6.7427-20.5208-14.0067-28.0326-24.5649l-6.4846,1.4915c-1.0633,5.4212,2.9416,11.484,7.8275,13.7649,5.5222,2.5779,15.899.6516,14.59,8.6543-14.2681,1.2271-26.8091-3.9115-29.6561-19.001.0955-7.3247,9.0286-15.4282,16.1845-11.7639,3.3658,1.7234,12.4286,13.0003,16.4382,16.5541,6.9621,6.1706,24.3844,13.1631,16.3693,25.2968-3.9985,6.0532-29.656,10.7828-35.8526,7.6865-1.3872-.6932-2.9419-2.8068-3.0391-4.4929-.0827-6.5202,10.9357-1.8803,15.8427-2.2326,5.6407-.4049,11.6428-3.3521,17.1402-4.6218Z"
      style="fill: #50d1ff;" />
    <path
      d="M976.5832,1059.082l.6649-6.0838c1.7482-2.5371,8.6693.0086,6.831-3.6531-2.1767-4.3357-8.3304-4.31-11.3256-6.6777-3.3524-2.6501-3.264-9.2698-5.9277-10.5756-3.4076-1.6705-1.5428,5.1161-4.4965,5.9873-7.851,2.3156-5.7932-11.4707.2314-13.2601,11.6197-3.4512,10.0747,6.4901,13.9254,11.1158,1.9462,2.3378,6.2011,2.5477,9.0483,4.4517,5.6652,3.7886,7.376,10.9853,3.0722,16.4716l-12.0234,2.224Z"
      style="fill: #50d1ff;" />
    <path
      d="M952.5823,1054.5884c.3987,10.1362-10.8816,8.7567-17.059,4.3089-4.0256-2.8985-7.0051-13.2073-4.7026-17.835,7.7291-8.1439,6.8792,4.0523,6.9998,9.5379,2.7817,5.9334,9.2868,3.6658,14.7618,3.9882Z"
      style="fill: #50d1ff;" />
    <path
      d="M246.0857,1059.0852c35.7333-35.2574,77.2252-28.5351,120.4085-11.6585,5.196,2.0306,25.2812,12.0218,27.3769,16.1227,1.0151,1.9864.781,3.9236.7121,6.0325-7.1754,1.8565-7.9754-2.5541-12.0562-5.188-27.897-18.006-80.1183-30.5863-110.8286-14.946-3.1834,1.6213-15.7576,10.624-17.8072,12.9926-.7676.887-.131,2.4739-.3055,2.6447-3.3294,3.2579-5.7584,5.1891-9,9-9.0005,10.5812-15.8798,22.296-24,33-1.5288,2.0153-4.329,5.6368-6,7.5-4.5728,5.0987-18.2656,15.4084-24.4453,18.3047-5.1057,2.3929-21.2979,7.3671-23.3983.2797-2.1589-7.285,10.0348-4.5336,13.8117-5.3663,9.5105-2.0967,20.0984-12.4078,26.5319-19.2181,3.4641-3.667,4.584-5.3596,7.5-9,7.9618-9.9395,14.8771-22.0302,22.5-31.5,1.5242-1.8934,6.7513-6.7812,9-9Z"
      style="fill: #50d1ff;" />
    <path
      d="M246.0857,1059.0852c-2.2487,2.2188-7.4758,7.1066-9,9-5.6552-3.0642-11.0365-6.6747-16.962-9.288-6.0554-2.6706-25.0432-10.2901-28.8108-2.7339-6.2919,12.6189,11.237,38.3296,23.2728,43.5219-2.916,3.6404-4.0359,5.333-7.5,9-10.7916-10.7816-25.4005-23.4305-27.0456-39.7053-.5558-5.4988-.7171-14.2026,2.3566-18.7337,13.4562-19.8369,40.5315-.801,56.1787,6.6936,2.469,1.1826,4.5195,2.6999,7.5103,2.2454Z"
      style="fill: #c4eefe;" />
    <path d="M791.3423,1155.0917c4.7639-1.367,7.5296,4.6362,2.9836,7.4901l-5.2373-3.756,2.2537-3.7341Z"
      style="fill: #50d1ff;" />
    <path
      d="M264.0857,1084.5852c3.2868-.0142,3.6621,1.3016,4.5,1.5.3739,5.9645.4085,3.805-3.7358,4.455-6.5453,1.0266-16.2603,9.236-17.2243,15.8348-.6756,4.6249,2.5295,13.0043-3.7835,11.2039-2.9501-.8414-2.5987-8.6362-2.3098-11.3058,1.0185-9.4117,13.1034-21.647,22.5535-21.6879Z"
      style="fill: #50d1ff;" />
    <path
      d="M284.9624,1224.2106c.7934.568,1.908,5.471.932,7.3888-1.3724,2.697-7.7164,4.2698-9.6855,2.8602-.7934-.568-1.908-5.471-.932-7.3888,1.3724-2.697,7.7164-4.2698,9.6855-2.8602Z"
      style="fill: #50d1ff;" />
    <path d="M1040.4504,1329.16l4.4663,1.3478,3.5079,5.5703c-2.5924,9.4299-14.3195,4.3813-10.6847-3.5295l2.7105-3.3886Z"
      style="fill: #50d1ff;" />
  </g>
</svg>