<svg xmlns="http://www.w3.org/2000/svg" xmlns:xlink="http://www.w3.org/1999/xlink" viewBox="0 0 142 51"
    overflow="visible">
    <g>
        <path d="M 0 0 L 141.998 0 L 141.998 50.997 L 0 50.997 Z" fill="transparent"></path>
        <path
            d="M 90.245 31.376 C 89.581 30.996 89.175 30.403 88.91 29.702 C 88.363 28.26 88.541 27.823 89.766 26.892 C 92.635 24.714 95.537 22.557 97.826 19.73 C 99.927 17.133 100.712 14.328 98.779 11.245 C 100.569 12.337 101.226 14.043 101.185 16.027 C 101.127 18.772 99.711 20.853 97.803 22.695 C 95.517 24.904 93.007 26.836 90.536 28.82 C 90.084 29.184 89.966 29.623 90.149 30.151 C 90.289 30.554 90.458 30.945 90.243 31.373 Z"
            fill="rgb(55,71,60)"></path>
        <path
            d="M 140.688 19.816 C 139.624 19.855 138.962 20.594 138.291 21.267 C 135.959 23.605 133.599 25.913 130.939 27.887 C 128.327 29.827 125.559 31.454 122.35 32.163 C 120.253 32.626 118.166 32.762 116.29 31.376 C 116.186 31.033 116.002 30.739 115.819 30.431 C 115.024 29.079 115.234 28.11 116.472 27.165 C 118.334 25.746 120.119 24.228 121.88 22.686 C 123.501 21.267 124.943 19.663 125.836 17.647 C 126.962 15.101 126.655 13.157 124.823 11.247 C 123.169 9.673 121.548 9.432 119.342 10.518 C 115.637 12.342 113.533 15.601 112.359 19.323 C 111.589 21.772 110.163 23.482 108.366 25.057 C 107.268 26.017 106.14 26.95 104.97 27.823 C 102.333 29.788 99.547 31.482 96.278 32.174 C 94.372 32.579 92.474 32.76 90.707 31.639 C 90.483 31.433 90.312 31.19 90.148 30.931 C 88.903 28.978 89.101 28.235 90.917 26.804 C 93.138 25.054 95.39 23.323 97.321 21.235 C 98.792 19.64 100.047 17.893 100.384 15.677 C 100.61 14.201 100.384 12.803 99.187 11.733 C 98.128 10.34 96.769 9.569 94.995 9.956 C 93.394 10.305 91.969 11.057 90.776 12.21 C 89.207 13.724 87.985 15.488 87.053 17.453 C 86.723 18.152 86.25 18.543 85.477 18.599 C 83.602 18.74 81.731 18.969 79.853 19.024 C 78.097 19.073 76.328 19.254 74.579 18.895 C 73.887 18.268 73.749 17.481 73.864 16.589 C 74.033 15.298 74.24 14.011 74.512 12.74 C 75.089 10.039 75.673 7.331 77.345 5.032 C 78.185 3.88 78.697 3.75 80.084 4.329 C 80.607 6.129 80.776 7.944 80.402 9.803 C 80.337 10.131 80.056 10.632 80.552 10.821 C 80.944 10.974 81.274 10.601 81.516 10.317 C 82.683 8.949 83.505 7.393 83.839 5.611 C 84.254 3.405 83.459 1.567 81.687 0.57 C 79.994 -0.384 77.954 -0.127 76.337 1.243 C 74.362 2.914 72.868 4.919 71.998 7.386 C 71.172 9.726 70.759 12.157 70.457 14.599 C 70.312 15.756 69.823 16.321 68.741 16.714 C 64.357 18.305 60.071 17.856 55.781 16.36 C 54.334 15.856 53.1 15.159 52.117 13.914 C 50.523 11.895 48.855 11.553 46.509 12.608 C 45.847 12.907 45.183 13.247 44.611 13.689 C 40.278 17.045 37.199 21.344 35.335 26.489 C 34.264 29.445 34.315 32.318 36.564 34.82 C 37.595 36.1 38.876 37.035 40.555 36.979 C 45.277 36.822 49.444 35.294 52.5 31.503 C 54.899 28.524 56.837 25.325 56.413 21.233 C 56.327 20.409 56.655 20.196 57.451 20.608 C 59.894 21.874 62.507 21.631 65.073 21.392 C 66.076 21.3 66.849 21.277 67.497 22.089 C 68.867 22.911 68.987 24.2 68.817 25.61 C 68.312 29.811 67.963 34.035 67.119 38.19 C 66.722 40.146 66.517 42.16 65.557 43.963 C 64.715 45.546 64.011 45.94 62.302 45.599 C 61.695 45.479 61.322 45.632 61.038 46.09 C 60.489 46.97 60.129 47.886 60.768 48.891 C 62.683 50.52 63.986 50.629 66.058 49.203 C 67.855 47.965 68.953 46.157 69.818 44.199 C 71.453 40.507 71.643 36.514 72.141 32.595 C 72.473 29.975 72.775 27.35 73.151 24.737 C 73.313 23.614 73.73 23.207 74.789 23.17 C 77.624 23.073 80.441 22.783 83.256 22.439 C 84.605 22.274 85.073 22.811 84.981 24.256 C 84.97 24.98 84.974 25.707 84.942 26.429 C 84.813 29.334 85.228 32.07 87.269 34.327 C 88.647 35.725 90.255 36.651 92.252 36.783 C 94.033 36.898 95.759 36.618 97.459 36.086 C 100.816 35.037 103.641 33.079 106.354 30.92 C 107.529 29.985 108.581 28.922 109.642 27.869 C 110.048 27.468 110.271 27.45 110.479 28.11 C 110.7 28.813 110.703 29.6 111.185 30.214 C 111.543 31.896 112.382 33.315 113.54 34.561 C 115.36 36.334 117.57 36.975 120.053 36.778 C 122.099 36.616 124.06 36.077 125.889 35.162 C 132.005 32.109 136.695 27.434 140.637 21.934 C 141.121 21.26 141.135 20.534 140.688 19.816 Z M 51.527 26.179 C 50.304 28.339 48.53 30.031 46.433 31.385 C 44.73 32.484 42.883 32.695 40.936 32.512 C 39.395 31.961 39.54 30.267 39.865 28.811 C 40.61 25.489 42.493 22.827 44.624 20.284 C 45.365 19.397 46.193 18.61 46.998 17.795 C 47.494 17.293 48.032 17.11 48.74 17.515 C 49.73 18.082 50.924 18.265 51.778 19.105 C 52.818 21.503 52.807 23.915 51.527 26.179 Z M 89.043 23.656 C 88.73 23.501 88.877 23.177 88.924 22.936 C 89.519 19.902 90.633 17.113 92.776 14.819 C 93.011 14.566 93.267 14.33 93.544 14.127 C 94.116 13.705 94.762 13.351 95.459 13.712 C 96.156 14.073 96.22 14.814 96.266 15.596 C 96.162 16.705 95.731 17.758 94.958 18.659 C 93.399 20.476 91.572 21.996 89.653 23.413 C 89.475 23.547 89.276 23.77 89.043 23.656 Z M 119.294 14.377 C 119.896 13.805 120.687 13.196 121.547 13.772 C 122.364 14.321 122.383 15.272 122.207 16.18 C 122.037 17.062 121.661 17.858 121.086 18.55 C 119.354 20.626 117.257 22.277 114.754 24.01 C 115.386 20.142 116.618 16.907 119.294 14.377 Z M 32.393 29.524 C 32.11 28.651 31.565 28.343 30.649 28.593 C 30.066 28.753 29.44 28.755 28.836 28.832 C 26.871 29.082 25.18 28.193 23.438 27.524 C 20.335 26.33 17.196 25.228 14.204 23.758 C 13.636 23.397 12.935 23.304 12.473 22.709 C 12.001 22.101 11.924 21.7 12.63 21.221 C 13.451 20.661 14.222 20.02 15.004 19.402 C 18.174 16.895 21.124 14.168 23.415 10.787 C 23.945 10.004 24.268 8.944 25.233 8.615 C 26.993 8.016 27.77 6.646 28.412 5.074 C 28.875 3.935 28.804 3.514 27.803 2.69 C 26.812 1.721 25.785 1.671 24.721 2.539 C 24.305 2.88 23.922 3.257 23.533 3.625 C 21.048 5.984 19.039 8.754 16.826 11.351 C 13.844 14.851 10.503 17.92 6.376 20.038 C 5.327 20.101 5.112 19.876 5.103 18.483 C 5.07 13.694 5.165 8.909 5.721 4.143 C 5.82 3.294 5.827 2.451 5.154 1.78 C 4.639 1.526 4.146 1.204 3.606 1.03 C 2.111 0.546 0.533 1.771 0.694 3.333 C 1.096 7.22 0.614 11.09 0.498 14.962 C 0.339 20.376 -0.032 25.79 0.002 31.209 C 0.021 33.954 0.39 36.706 2.923 38.509 C 3.917 39.412 4.711 38.553 5.523 38.169 C 6.238 37.831 6.616 37.132 6.533 36.373 C 6.466 35.75 6.206 35.121 5.931 34.537 C 4.909 32.371 4.738 30.116 5.202 27.797 C 5.479 26.42 6.113 25.943 7.497 26.2 C 9.324 26.54 11.145 26.908 12.898 27.577 C 15.715 28.649 18.301 30.223 21.131 31.26 C 23.38 32.082 25.57 33.072 27.92 33.598 C 29.777 34.012 31.996 32.825 32.712 31.066 C 32.958 30.461 32.94 29.945 32.391 29.524 Z"
            fill="rgb(242,242,242)"></path>
        <path
            d="M 73.248 30.827 C 73.105 32.66 72.884 34.489 72.759 36.324 C 72.639 38.121 72.293 39.979 71.848 41.794 C 71.324 43.935 70.473 45.872 69.396 47.715 C 68.187 49.78 66.394 51.113 63.855 50.992 C 62.431 50.925 61.485 50.055 60.768 48.893 C 63.054 50.099 64.858 49.828 66.674 47.951 C 69.405 45.129 70.385 41.556 70.888 37.801 C 71.513 33.151 72.113 28.498 72.672 23.841 C 72.78 22.929 73.131 22.591 74.042 22.582 C 77.57 22.548 81.089 22.222 84.564 21.608 C 85.385 21.462 85.636 21.652 85.403 22.469 C 85.235 23.057 85.119 23.658 84.981 24.256 C 84.916 23.508 84.529 23.332 83.802 23.42 C 81.978 23.642 80.141 23.786 78.31 23.945 C 77.62 24.006 76.935 23.932 76.247 23.827 C 75.004 23.638 74.222 24.263 73.98 25.499 L 73.251 30.827 Z M 36.564 34.82 C 38.396 36.787 40.705 36.484 43.01 36.172 C 48.941 35.364 54.526 30.068 55.723 24.168 C 56.043 22.589 55.91 21.052 55.345 19.249 C 59.465 21.392 63.527 21.455 67.774 20.175 C 67.594 20.906 67.278 21.471 67.495 22.089 C 63.945 22.499 60.41 22.756 57.056 20.95 C 57.525 23.978 57.232 26.855 55.651 29.36 C 53.891 32.149 51.847 34.806 48.742 36.25 C 46.246 37.412 43.524 37.884 40.804 37.757 C 38.956 37.672 37.526 36.459 36.562 34.82 Z M 113.54 34.56 C 118.385 37.56 123.001 36.209 127.446 33.66 C 132.628 30.69 136.704 26.478 140.171 21.645 C 140.563 21.098 140.826 20.51 140.688 19.814 C 142.372 21.545 142.39 21.92 140.999 23.827 C 137.583 28.519 133.412 32.399 128.385 35.271 C 126.256 36.489 123.921 37.364 121.432 37.549 C 118.366 37.778 115.534 37.243 113.54 34.558 Z"
            fill="rgb(55,71,60)"></path>
        <path
            d="M 2.923 38.509 C 3.396 38.523 3.83 38.364 4.256 38.188 C 6.065 37.445 6.406 36.771 5.578 34.993 C 4.575 32.834 4.113 30.628 4.512 28.267 C 4.602 27.737 4.681 27.195 4.861 26.695 C 5.211 25.716 5.802 25.309 6.974 25.473 C 10.849 26.017 14.284 27.7 17.77 29.32 C 21.007 30.825 24.294 32.244 27.798 33.01 C 30.285 33.551 32.193 32.051 32.396 29.526 C 33.777 29.836 34.257 31.244 33.436 32.588 C 32.453 34.202 30.158 35.021 28.264 34.362 C 23.634 32.748 19.064 31.001 14.69 28.739 C 12.545 27.631 10.102 27.272 7.73 26.841 C 6.921 26.693 6.219 27.843 5.903 29.158 C 5.234 31.943 6.319 34.385 7.221 36.873 C 7.64 38.03 7.428 38.706 6.298 39.183 C 5.532 39.505 4.805 40.199 3.83 39.609 C 3.373 39.334 2.997 39.072 2.928 38.514 Z"
            fill="rgb(55,71,60)"></path>
        <path
            d="M 14.201 23.758 C 13.159 23.594 12.303 22.945 11.325 22.614 C 10.559 22.355 10.577 21.994 11.2 21.52 C 13.066 20.105 14.97 18.735 16.757 17.224 C 19.348 15.036 21.712 12.615 23.438 9.655 C 23.992 8.703 24.723 8.113 25.733 7.694 C 27.445 6.986 28.472 4.363 27.798 2.688 C 28.935 2.893 29.854 4.613 29.454 5.805 C 28.898 7.465 28.137 8.93 26.239 9.398 C 25.528 9.574 25.29 10.284 24.965 10.821 C 22.16 15.448 18.155 18.869 13.869 22.008 C 12.794 22.795 12.773 22.763 13.846 23.462 C 13.973 23.545 14.081 23.658 14.197 23.758 Z M 87.269 34.327 C 92.063 37.651 96.707 36.23 101.238 33.764 C 104.393 32.047 107.109 29.714 109.602 27.124 C 109.96 26.751 110.248 26.269 110.89 26.08 C 111.079 27.482 110.883 28.871 111.183 30.216 C 111.146 30.209 111.086 30.214 111.072 30.191 C 110.244 28.721 109.685 29.869 109.06 30.397 C 106.228 32.792 103.353 35.146 99.847 36.482 C 97.394 37.415 94.859 37.91 92.185 37.417 C 90.1 37.033 88.469 36.058 87.269 34.327 Z M 116.29 31.376 C 115.626 30.996 115.22 30.403 114.954 29.702 C 114.408 28.26 114.585 27.823 115.81 26.892 C 118.68 24.714 121.582 22.557 123.87 19.73 C 125.972 17.133 126.756 14.328 124.823 11.245 C 126.613 12.337 127.271 14.043 127.229 16.027 C 127.172 18.772 125.755 20.853 123.848 22.695 C 121.561 24.904 119.051 26.836 116.581 28.82 C 116.129 29.184 116.011 29.623 116.193 30.151 C 116.334 30.554 116.502 30.945 116.288 31.373 Z M 74.577 18.895 C 73.657 18.923 73.156 18.434 73.246 17.555 C 73.705 13.094 74.326 8.671 76.789 4.766 C 77.098 4.278 77.458 3.826 77.975 3.528 C 79.009 2.933 79.599 3.155 80.081 4.329 C 78.799 5.391 77.578 6.562 76.985 8.129 C 76.141 10.358 75.456 12.664 75.14 15.036 C 74.969 16.326 74.496 17.571 74.577 18.893 Z M 6.374 20.038 C 5.903 20.434 5.343 20.691 4.785 20.404 C 4.203 20.105 4.404 19.471 4.42 18.941 C 4.561 14.36 4.611 9.775 4.969 5.201 C 5.057 4.063 5.546 2.942 5.156 1.778 C 6.411 2.526 6.778 3.549 6.607 5.051 C 6.081 9.685 5.86 14.342 5.869 19.011 C 5.869 19.467 5.878 19.86 6.376 20.038 Z M 51.778 19.105 C 50.701 19.186 49.914 18.471 49.026 18.062 C 48.286 17.719 47.81 17.867 47.201 18.413 C 45.185 20.224 43.545 22.365 42.145 24.626 C 40.973 26.519 40.248 28.704 40.186 31.019 C 40.168 31.667 40.555 32.082 40.938 32.514 C 39.639 32.135 38.843 31.093 38.818 29.735 C 38.777 27.552 39.413 25.556 40.532 23.712 C 41.891 21.473 43.476 19.395 45.227 17.453 C 46.44 16.108 46.971 16.052 48.507 16.958 C 49.075 17.291 49.656 17.573 50.306 17.698 C 51.102 17.849 51.621 18.286 51.78 19.108 Z"
            fill="rgb(55,71,60)"></path>
    </g>
</svg>